<svg width="110" height="30" xmlns="http://www.w3.org/2000/svg" xmlns:xlink="http://www.w3.org/1999/xlink"><defs><path id="a" d="M.018.348H27.43v18.146H.018z"/></defs><g fill="none" fill-rule="evenodd"><path d="M41.55 17.994c.327-.44.491-1.073.491-1.898 0-.863-.174-1.536-.522-2.023-.347-.487-.86-.729-1.538-.729-.685 0-1.195.242-1.532.726-.337.483-.506 1.142-.506 1.977 0 .828.184 1.47.548 1.926.366.455.893.683 1.582.683.658 0 1.151-.22 1.477-.662m-3.637 1.559a3.275 3.275 0 0 1-1.404-1.33c-.34-.589-.509-1.3-.509-2.134 0-.839.17-1.566.509-2.184a3.468 3.468 0 0 1 1.424-1.415c.608-.326 1.31-.49 2.101-.49.782 0 1.471.16 2.068.482a3.437 3.437 0 0 1 1.396 1.39c.334.606.502 1.322.502 2.145 0 .84-.174 1.558-.521 2.156a3.424 3.424 0 0 1-1.435 1.362c-.61.31-1.305.465-2.086.465-.767 0-1.448-.149-2.045-.447M50.672 18.468c.358-.523.537-1.288.537-2.295 0-.934-.148-1.612-.444-2.032-.296-.422-.69-.632-1.183-.632-.342 0-.657.09-.946.264-.289.176-.564.41-.824.704v4.476a2.993 2.993 0 0 0 1.3.3c.683 0 1.203-.26 1.56-.785Zm-4.616-4.27c0-.618-.019-1.3-.056-2.044h1.648c.062.347.105.7.128 1.062.683-.81 1.464-1.216 2.345-1.216.513 0 .986.14 1.422.421.436.283.788.727 1.056 1.332.267.608.401 1.377.401 2.31 0 .977-.152 1.81-.458 2.502-.305.692-.733 1.215-1.283 1.572-.55.355-1.185.533-1.905.533a4.36 4.36 0 0 1-1.542-.286v3.453L46.056 24v-9.801ZM59.234 15.102c-.035-.614-.193-1.076-.477-1.383-.284-.307-.661-.46-1.136-.46-.46 0-.841.154-1.148.465-.304.309-.504.768-.596 1.378h3.357ZM61 16.225h-5.174c.083 1.615.872 2.424 2.367 2.424.371 0 .751-.045 1.14-.132.389-.089.76-.206 1.117-.355l.396 1.209c-.884.42-1.879.629-2.983.629-.84 0-1.55-.154-2.125-.465a3.012 3.012 0 0 1-1.301-1.337c-.291-.582-.437-1.282-.437-2.102 0-.852.154-1.587.462-2.201.308-.616.736-1.084 1.287-1.409.549-.324 1.183-.486 1.902-.486.747 0 1.371.17 1.872.512.501.34.872.794 1.114 1.36.241.567.363 1.194.363 1.88v.473ZM63.06 14.148c0-.733-.02-1.4-.06-2.003h1.699c.03.165.057.372.084.615.027.246.046.447.055.608.245-.27.49-.503.732-.694.242-.192.529-.353.86-.481.331-.129.705-.193 1.121-.193.78 0 1.383.253 1.81.756.426.505.639 1.243.639 2.213V20h-1.802v-4.906c0-1.117-.424-1.675-1.271-1.675-.383 0-.74.1-1.074.302a4.794 4.794 0 0 0-.986.812V20H63.06v-5.852ZM74.345 19.316a4.396 4.396 0 0 1-1.753-1.904C72.198 16.6 72 15.663 72 14.603c0-1.167.231-2.173.695-3.019a4.681 4.681 0 0 1 1.927-1.925c.821-.44 1.761-.659 2.82-.659.624 0 1.219.075 1.787.222.567.149 1.089.343 1.565.584l-.357.762a7.914 7.914 0 0 0-1.444-.554 5.767 5.767 0 0 0-1.535-.2c-.878 0-1.653.186-2.326.558-.674.372-1.202.918-1.582 1.637-.38.72-.57 1.582-.57 2.587 0 .883.152 1.67.457 2.362a3.622 3.622 0 0 0 1.405 1.64c.634.403 1.426.603 2.38.603.48 0 .972-.048 1.47-.147.5-.1.962-.235 1.388-.407V15.86h-3.017v-.82H81v4.065a8.695 8.695 0 0 1-1.882.662 8.75 8.75 0 0 1-1.972.233c-1.095 0-2.029-.229-2.801-.684M85.483 19.106c.341-.116.65-.268.93-.458.278-.19.5-.392.664-.61v-1.973a12.05 12.05 0 0 0-1.497-.094c-1.001 0-1.701.163-2.098.49-.397.327-.596.764-.596 1.313 0 .508.142.886.425 1.135.283.246.664.37 1.144.37.343 0 .687-.057 1.028-.173Zm1.74.75a5.69 5.69 0 0 1-.065-.534 9.511 9.511 0 0 1-.037-.577c-.305.352-.703.648-1.195.891a3.586 3.586 0 0 1-1.61.364 2.76 2.76 0 0 1-1.205-.252 1.878 1.878 0 0 1-.816-.746c-.197-.329-.295-.729-.295-1.2 0-.74.271-1.335.814-1.784.542-.448 1.43-.674 2.666-.674.493 0 1.025.034 1.597.101v-.31c0-.889-.174-1.515-.523-1.877-.348-.363-.838-.545-1.467-.545-.392 0-.798.056-1.217.17a5.707 5.707 0 0 0-1.072.393l-.181-.692c.262-.144.629-.278 1.1-.4a5.822 5.822 0 0 1 1.48-.184c.58 0 1.07.101 1.473.302.403.203.714.543.938 1.02.222.478.334 1.124.334 1.935v3.136c0 .322.019.81.058 1.462h-.778ZM91.562 19.255c-.376-.498-.562-1.247-.562-2.253V12h.837v4.973c0 .784.141 1.358.423 1.723.282.365.692.547 1.232.547.481 0 .948-.133 1.396-.4.448-.267.85-.599 1.203-.995V12h.845v5.87c0 .548.021 1.21.064 1.983h-.737a21.047 21.047 0 0 1-.143-1.204 6.095 6.095 0 0 1-1.292.98 3.077 3.077 0 0 1-1.515.371c-.793 0-1.376-.25-1.751-.745M98.99 19.87a4.797 4.797 0 0 1-.99-.331l.24-.714c.267.14.577.248.93.329.354.078.706.119 1.054.119.635 0 1.12-.133 1.453-.397.336-.265.502-.62.502-1.067 0-.279-.072-.511-.214-.699a1.796 1.796 0 0 0-.604-.486c-.259-.138-.64-.307-1.144-.51a7.137 7.137 0 0 1-1.166-.572 2.149 2.149 0 0 1-.683-.662c-.158-.253-.237-.56-.237-.92 0-.394.094-.739.28-1.033.187-.297.463-.525.83-.685.364-.162.806-.242 1.324-.242.713 0 1.44.17 2.181.511l-.197.678a4.296 4.296 0 0 0-1.947-.483c-.528 0-.933.109-1.213.325-.28.215-.422.503-.422.865 0 .245.07.451.207.62.139.167.328.313.568.434.24.125.601.286 1.086.488.499.212.89.4 1.177.565.285.167.523.387.712.664.188.276.283.626.283 1.049 0 .45-.108.849-.326 1.193-.218.343-.54.61-.964.803-.424.192-.936.288-1.537.288-.41 0-.806-.043-1.184-.13M105.99 19.87a4.797 4.797 0 0 1-.99-.331l.24-.714c.267.14.577.248.93.329.355.078.706.119 1.054.119.635 0 1.12-.133 1.453-.397.336-.265.502-.62.502-1.067 0-.279-.072-.511-.214-.699a1.796 1.796 0 0 0-.604-.486c-.259-.138-.64-.307-1.144-.51a7.163 7.163 0 0 1-1.166-.572 2.149 2.149 0 0 1-.683-.662c-.158-.253-.237-.56-.237-.92 0-.394.094-.739.28-1.033.187-.297.463-.525.83-.685.364-.162.806-.242 1.324-.242.713 0 1.44.17 2.181.511l-.197.678a4.294 4.294 0 0 0-1.947-.483c-.528 0-.933.109-1.213.325-.28.215-.422.503-.422.865 0 .245.07.451.207.62.139.167.328.313.568.434.24.125.601.286 1.086.488.499.212.891.4 1.177.565.285.167.523.387.712.664.189.276.283.626.283 1.049 0 .45-.108.849-.326 1.193-.218.343-.54.61-.964.803-.424.192-.936.288-1.537.288-.41 0-.806-.043-1.184-.13M27 11.696l-8.402-4.534-4.525 2.602h-.001s-1.538.856-1.634 2.236c-.147-.096-.407-.352-.433-.555L12 11.38V8.195c0-.226.147-.451.438-.622L18.621 4 27 8.512" fill="#FFF"/><g><mask id="b" fill="#fff"><use xlink:href="#a"/></mask><path d="M.022 7.726C.05 7.52.2 7.316.471 7.16L11.22.944c.688-.397 1.596-.596 2.503-.596V3.6c-.907 0-1.815.199-2.503.596L2.186 9.421l9.035 5.224c1.376.795 3.63.795 5.006 0l10.75-6.216c.302-.174.453-.404.453-.635v3.253c0 .23-.15.46-.453.635l-10.75 6.215c-1.377.796-3.63.796-5.006 0L.471 11.682c-.302-.175-.453-.404-.453-.635V7.794l.004-.068Z" fill="#FFF" mask="url(#b)"/></g><path d="M27 17.345c0 .237-.15.472-.447.652l-10.588 6.39c-1.355.818-3.574.818-4.93 0L.447 17.996c-.299-.18-.447-.416-.447-.652V14c0 .237.148.473.447.653l10.588 6.39c1.356.818 3.575.818 4.93 0l10.588-6.39c.298-.18.447-.416.447-.652v3.344Z" fill="#FFF"/><path d="M27 22.345c0 .236-.15.473-.447.653l-10.588 6.388c-1.355.819-3.574.819-4.93 0L.447 22.998C.148 22.818 0 22.58 0 22.344V19c0 .237.148.474.447.653l10.588 6.389c1.356.818 3.575.818 4.93 0l10.588-6.389c.298-.18.447-.416.447-.652v3.344Z" fill="#FFF"/></g></svg>