<svg width="207" height="54" xmlns="http://www.w3.org/2000/svg" xmlns:xlink="http://www.w3.org/1999/xlink"><defs><path id="a" d="M0 0h37.168v24.85H0z"/></defs><g fill="none" fill-rule="evenodd"><path d="M56.262 30.341c.438-.632.658-1.541.658-2.726 0-1.239-.233-2.206-.7-2.905-.465-.7-1.152-1.047-2.062-1.047-.919 0-1.603.347-2.055 1.043-.452.693-.678 1.64-.678 2.838 0 1.19.246 2.113.735 2.767.49.654 1.197.981 2.122.981.882 0 1.543-.318 1.98-.95m-4.878 2.238c-.8-.427-1.428-1.065-1.882-1.91-.455-.846-.683-1.867-.683-3.064 0-1.205.228-2.25.683-3.138.454-.885 1.091-1.563 1.909-2.032.816-.468 1.756-.704 2.818-.704 1.049 0 1.973.231 2.772.693.8.462 1.425 1.13 1.873 1.996.448.87.673 1.898.673 3.081 0 1.205-.233 2.237-.699 3.097-.465.858-1.107 1.51-1.924 1.955-.817.446-1.75.668-2.798.668-1.028 0-1.942-.214-2.742-.642M68.324 30.31c.52-.693.78-1.708.78-3.043 0-1.239-.214-2.138-.645-2.695-.43-.56-1.006-.838-1.722-.838-.498 0-.956.118-1.376.35a5.141 5.141 0 0 0-1.2.934v5.936c.255.122.552.22.889.29.338.073.672.108 1.003.108.995 0 1.75-.346 2.27-1.042Zm-6.719-5.662c0-.82-.027-1.725-.081-2.711h2.399c.09.46.152.928.186 1.408.993-1.074 2.13-1.613 3.413-1.613.746 0 1.435.187 2.07.56.634.373 1.146.963 1.536 1.766.39.805.584 1.826.584 3.064 0 1.295-.222 2.4-.667 3.318-.444.917-1.067 1.61-1.867 2.084-.8.47-1.725.708-2.772.708a6.896 6.896 0 0 1-2.245-.38v4.58l-2.556.216v-13ZM80.381 26.188c-.048-.882-.272-1.546-.672-1.987-.4-.44-.934-.662-1.604-.662-.648 0-1.187.223-1.62.669-.429.444-.71 1.103-.841 1.98h4.737Zm2.494 1.612h-7.303c.116 2.32 1.23 3.482 3.34 3.482.525 0 1.06-.065 1.609-.19a9.518 9.518 0 0 0 1.577-.51l.56 1.737c-1.249.602-2.653.903-4.211.903-1.186 0-2.187-.222-3-.667a4.293 4.293 0 0 1-1.836-1.92c-.41-.837-.617-1.842-.617-3.02 0-1.223.218-2.278.653-3.161.434-.884 1.039-1.557 1.816-2.023.775-.466 1.67-.698 2.684-.698 1.055 0 1.936.244 2.643.734a4.391 4.391 0 0 1 1.572 1.954c.34.815.513 1.715.513 2.701v.678ZM84.934 24.762c0-1.034-.028-1.974-.083-2.825h2.39c.041.233.08.524.118.868.038.346.064.63.078.857.344-.382.688-.71 1.03-.98.34-.27.743-.497 1.21-.678a4.321 4.321 0 0 1 1.577-.271c1.096 0 1.945.356 2.546 1.066.599.713.899 1.754.899 3.122v7.095h-2.535v-6.92c0-1.575-.596-2.363-1.789-2.363a2.86 2.86 0 0 0-1.51.427c-.47.284-.932.665-1.388 1.145v7.71h-2.543v-8.253ZM100 32.272a6.061 6.061 0 0 1-2.384-2.644c-.537-1.129-.806-2.43-.806-3.902 0-1.622.314-3.019.946-4.193.631-1.174 1.505-2.066 2.622-2.675 1.118-.61 2.397-.915 3.839-.915a9.5 9.5 0 0 1 2.43.308c.772.207 1.483.476 2.13.812l-.485 1.057a10.637 10.637 0 0 0-1.966-.768 7.699 7.699 0 0 0-2.089-.28c-1.194 0-2.249.26-3.165.777-.918.516-1.635 1.275-2.152 2.273-.518 1-.776 2.198-.776 3.594 0 1.226.207 2.319.62 3.281a5.004 5.004 0 0 0 1.914 2.278c.862.56 1.94.837 3.238.837.655 0 1.323-.067 2.002-.203.68-.138 1.309-.327 1.888-.566V27.47H103.7v-1.14h5.358v5.648c-.794.397-1.647.704-2.56.92a11.68 11.68 0 0 1-2.685.323c-1.49 0-2.761-.317-3.812-.95M116.315 31.948a5.414 5.414 0 0 0 1.325-.652c.395-.27.711-.56.945-.868v-2.813a17.155 17.155 0 0 0-2.131-.132c-1.426 0-2.423.232-2.988.698-.566.464-.85 1.088-.85 1.87 0 .723.202 1.263.606 1.616.404.352.946.528 1.63.528.488 0 .977-.082 1.463-.247Zm2.477 1.068a8.11 8.11 0 0 1-.092-.76 13.554 13.554 0 0 1-.052-.821c-.435.5-1.002.922-1.702 1.268s-1.464.519-2.292.519c-.648 0-1.22-.121-1.716-.359a2.676 2.676 0 0 1-1.164-1.063c-.279-.468-.42-1.038-.42-1.71 0-1.054.387-1.901 1.16-2.541.772-.639 2.037-.96 3.796-.96.703 0 1.461.048 2.275.144v-.442c0-1.266-.248-2.158-.744-2.674-.497-.517-1.194-.777-2.09-.777-.558 0-1.137.08-1.733.242a8.126 8.126 0 0 0-1.526.56l-.258-.985c.373-.206.895-.396 1.567-.57a8.289 8.289 0 0 1 2.106-.262c.827 0 1.526.144 2.1.43.572.29 1.016.773 1.334 1.453.317.681.476 1.602.476 2.757v4.467c0 .46.027 1.153.083 2.084h-1.108ZM123.681 32.18c-.542-.695-.811-1.743-.811-3.148V22.04h1.21v6.951c0 1.096.202 1.898.61 2.409.407.51 1 .764 1.78.764.695 0 1.369-.187 2.016-.559a7.33 7.33 0 0 0 1.738-1.39V22.04h1.22v8.205c0 .766.032 1.691.093 2.771h-1.064c-.05-.267-.118-.828-.207-1.683a8.784 8.784 0 0 1-1.867 1.37c-.645.346-1.375.519-2.188.519-1.146 0-1.988-.348-2.53-1.042M135.046 33.037a6.824 6.824 0 0 1-1.409-.472l.342-1.017c.38.2.822.353 1.325.468.503.112 1.004.17 1.5.17.903 0 1.593-.189 2.068-.566.477-.377.714-.882.714-1.52 0-.397-.102-.728-.304-.995-.204-.268-.49-.497-.86-.693-.369-.196-.911-.437-1.628-.725-.683-.274-1.237-.545-1.66-.815-.425-.271-.748-.585-.973-.944-.225-.361-.336-.798-.336-1.31 0-.562.132-1.054.398-1.473.265-.422.658-.747 1.18-.976.52-.23 1.149-.344 1.886-.344 1.015 0 2.05.242 3.105.728l-.28.966c-.91-.458-1.835-.688-2.772-.688-.752 0-1.328.155-1.728.462-.4.307-.6.717-.6 1.232 0 .35.099.644.295.884.197.239.466.446.808.62.34.176.856.406 1.546.694.71.301 1.268.57 1.676.804.405.238.744.552 1.013.946.268.394.403.892.403 1.495 0 .642-.154 1.21-.465 1.699-.31.49-.768.87-1.37 1.145-.605.274-1.333.41-2.19.41a7.493 7.493 0 0 1-1.684-.185M143.29 33.037a6.824 6.824 0 0 1-1.408-.472l.342-1.017c.38.2.822.353 1.325.468.504.112 1.004.17 1.5.17.903 0 1.593-.189 2.068-.566.477-.377.714-.882.714-1.52 0-.397-.102-.728-.304-.995-.204-.268-.49-.497-.86-.693-.369-.196-.911-.437-1.628-.725-.683-.274-1.237-.545-1.66-.815-.425-.271-.748-.585-.973-.944-.224-.361-.336-.798-.336-1.31 0-.562.132-1.054.398-1.473.265-.422.658-.747 1.18-.976.52-.23 1.149-.344 1.886-.344 1.015 0 2.05.242 3.104.728l-.28.966c-.91-.458-1.833-.688-2.771-.688-.752 0-1.328.155-1.728.462-.4.307-.6.717-.6 1.232 0 .35.099.644.295.884.197.239.466.446.808.62.34.176.856.406 1.546.694.71.301 1.269.57 1.676.804a3.14 3.14 0 0 1 1.014.946c.268.394.402.892.402 1.495 0 .642-.154 1.21-.465 1.699-.31.49-.768.87-1.37 1.145-.605.274-1.333.41-2.19.41a7.493 7.493 0 0 1-1.684-.185" fill="#424140"/><path d="M37.193 21.652 25.4 15.308l-6.352 3.64s-2.16 1.199-2.294 3.13c-.206-.134-.571-.493-.609-.777l-.006-.093v-4.455c.001-.315.206-.63.615-.87l8.678-4.998 11.76 6.312" fill="#2480C3"/><g transform="translate(.024 7)"><mask id="b" fill="#fff"><use xlink:href="#a"/></mask><path d="M.005 10.104c.037-.283.24-.56.609-.776L15.19.817C16.124.272 17.354 0 18.584 0v4.454c-1.23 0-2.46.273-3.393.818L2.94 12.425l12.25 7.153c1.866 1.09 4.92 1.09 6.788 0l14.576-8.511c.41-.24.614-.554.614-.87v4.455c0 .316-.204.63-.614.87l-14.576 8.51c-1.867 1.09-4.922 1.09-6.787 0L.614 15.522c-.409-.24-.614-.554-.614-.87v-4.455l.005-.093Z" fill="#2480C3" mask="url(#b)"/></g><path d="M37.168 28.843c0 .316-.205.63-.615.87l-14.576 8.51c-1.865 1.09-4.92 1.09-6.786 0L.615 29.713c-.41-.24-.615-.555-.615-.87v-4.456c0 .316.204.631.615.87l14.576 8.511c1.866 1.09 4.92 1.09 6.786 0l14.576-8.51c.41-.24.615-.555.615-.87v4.455Z" fill="#2480C3"/><path d="M37.168 35.803c0 .315-.205.63-.615.87l-14.576 8.51c-1.865 1.09-4.92 1.09-6.786 0L.615 36.672c-.41-.24-.615-.555-.615-.87v-4.455c0 .315.204.63.615.87l14.576 8.51c1.866 1.09 4.92 1.09 6.786 0l14.576-8.51c.41-.24.615-.555.615-.87v4.455Z" fill="#2480C3"/><text font-family="FZLTHJW--GB1-0, FZLanTingHeiS-R-GB" font-size="19" letter-spacing=".004" fill="#424140">
                    <tspan x="156.092" y="32">Docs</tspan>
                </text></g></svg>