<?xml version="1.0" encoding="UTF-8"?>
<svg width="16px" height="16px" viewBox="0 0 16 16" version="1.1" xmlns="http://www.w3.org/2000/svg" xmlns:xlink="http://www.w3.org/1999/xlink">
    <title>yellow star</title>
    <defs>
        <filter id="filter-1">
            <feColorMatrix in="SourceGraphic" type="matrix" values="0 0 0 0 0.996078 0 0 0 0 0.701961 0 0 0 0 0.164706 0 0 0 1.000000 0"></feColorMatrix>
        </filter>
    </defs>
    <g id="页面-1" stroke="none" stroke-width="1" fill="none" fill-rule="evenodd">
        <g id="文档内容1600" transform="translate(-1374.000000, -429.000000)">
            <rect fill="#FFFFFF" x="0" y="0" width="1600" height="1154"></rect>
            <g id="编组-15">
                <rect id="矩形" x="1342" y="110" width="260" height="1044"></rect>
                <g id="编组-9" transform="translate(1340.000000, 429.000000)">
                    <g filter="url(#filter-1)" id="openEuler/icons/rating">
                        <g transform="translate(35.000000, 1.000000)">
                            <path d="M13.305,4.83499999 L9.00000001,4.83499999 L7.67,0.73499998 C7.57602021,0.450177197 7.30992702,0.257772796 7.01,0.257772796 C6.71007298,0.257772796 6.44397979,0.450177197 6.35,0.73499998 L4.99999999,4.83499999 L0.69499998,4.83499999 C0.394912245,4.83569522 0.12916097,5.0289197 0.0359710368,5.31417181 C-0.0572188968,5.59942393 0.0432012129,5.91227412 0.284999979,6.09 L3.78499999,8.62500001 L2.44499999,12.73 C2.37621334,12.941449 2.41275416,13.173046 2.54330246,13.3530444 C2.67385076,13.5330428 2.88264396,13.6397094 3.10499999,13.64 C3.24769442,13.6338332 3.38527181,13.5850716 3.49999999,13.5 L7,10.965 L10.5,13.5 C10.6181025,13.5851929 10.7594023,13.6322928 10.905,13.635 C11.127356,13.6347094 11.3361492,13.5280428 11.4666975,13.3480444 C11.5972458,13.168046 11.6337867,12.936449 11.565,12.725 L10.235,8.62000001 L13.735,6.085 C13.9754478,5.90385332 14.0719326,5.58849659 13.9740047,5.30382239 C13.8760768,5.0191482 13.6060036,4.82988739 13.305,4.83499999 Z" id="Path" fill="#002FA7"></path>
                            <polygon id="Path" fill="#002FA7" points="9.63500001 7.835 9.05000001 8.265 9.27000001 8.95500001 10.315 12.16 7.59 10.16 7 9.73000001 6.41 10.16 3.68499999 12.16 4.72999999 8.95500001 4.94999999 8.265 4.36499999 7.835 1.63999998 5.835 5.735 5.835 5.96 5.14499999 7 1.94499998 8.04 5.14499999 8.265 5.835 12.36 5.835"></polygon>
                        </g>
                    </g>
                    <rect id="矩形" x="34" y="0" width="16" height="16"></rect>
                </g>
            </g>
        </g>
    </g>
</svg>