<?xml version="1.0" encoding="UTF-8"?>
<svg width="24px" height="24px" viewBox="0 0 24 24" version="1.1" xmlns="http://www.w3.org/2000/svg" xmlns:xlink="http://www.w3.org/1999/xlink">
    <title>切片</title>
    <g id="light" stroke="none" stroke-width="1" fill="none" fill-rule="evenodd">
        <g id="文档/详情页-light" transform="translate(-1388.000000, -72.000000)" fill="#000000" fill-rule="nonzero">
            <g id="编组-9" transform="translate(300.000000, 60.000000)">
                <g id="icon/24/make_comment" transform="translate(1088.000000, 12.000000)">
                    <path d="M21,11.5 L21,19 C21,20.1045695 20.1045695,21 19,21 L5,21 C3.8954305,21 3,20.1045695 3,19 L3,5 C3,3.8954305 3.8954305,3 5,3 L12.5,3 C12.7761424,3 13,3.22385763 13,3.5 L13,4.5 C13,4.77614237 12.7761424,5 12.5,5 L5,5 L5,19 L19,19 L19,11.5 C19,11.2238576 19.2238576,11 19.5,11 L20.5,11 C20.7761424,11 21,11.2238576 21,11.5 Z M20.71,3.71 L20.29,3.29 C20.1037394,3.10525584 19.8523399,3.00110462 19.59,3 L19.29,3 C19.0276601,3.00110462 18.7762606,3.10525584 18.59,3.29 L16.79,5.09 C16.5994286,5.28442176 16.5994286,5.59557824 16.79,5.79 L18.21,7.21 C18.4044218,7.40057144 18.7155782,7.40057144 18.91,7.21 L20.71,5.41 C20.8947442,5.22373936 20.9988954,4.97233988 21,4.71 L21,4.41 C20.9988954,4.14766012 20.8947442,3.89626064 20.71,3.71 Z M7.83,14.29 L7.04,16.29 C6.96520922,16.4757857 7.00849404,16.6882748 7.15,16.83 L7.15,16.83 C7.29172523,16.971506 7.50421432,17.0147908 7.69,16.94 L9.69,16.15 C9.94430299,16.0512451 10.1757141,15.9015085 10.37,15.71 L17,9.15 C17.1905714,8.95557824 17.1905714,8.64442176 17,8.45 L15.55,7 C15.3555782,6.80942856 15.0444218,6.80942856 14.85,7 L8.27,13.61 C8.07849146,13.8042859 7.92875486,14.035697 7.83,14.29 Z" id="Icon-color"></path>
                </g>
            </g>
        </g>
    </g>
</svg>