<?xml version="1.0" encoding="UTF-8"?>
<svg width="16px" height="16px" viewBox="0 0 16 16" version="1.1" xmlns="http://www.w3.org/2000/svg" xmlns:xlink="http://www.w3.org/1999/xlink">
    <title>star</title>
    <g id="页面-1" stroke="none" stroke-width="1" fill="none" fill-rule="evenodd">
        <g id="文档内容1600" transform="translate(-1396.000000, -429.000000)">
            <rect fill="#FFFFFF" x="0" y="0" width="1600" height="1154"></rect>
            <g id="编组-15">
                <rect id="矩形" x="1342" y="110" width="260" height="1044"></rect>
                <g id="编组-9" transform="translate(1340.000000, 429.000000)" fill="#0B162B" opacity="0.5">
                    <g id="openEuler/icons/rating备份" transform="translate(56.000000, 0.000000)">
                        <path d="M14.305,5.83499999 L10,5.83499999 L8.67,1.73499998 C8.57602021,1.4501772 8.30992702,1.2577728 8.01,1.2577728 C7.71007298,1.2577728 7.44397979,1.4501772 7.35,1.73499998 L5.99999999,5.83499999 L1.69499998,5.83499999 C1.39491224,5.83569522 1.12916097,6.0289197 1.03597104,6.31417181 C0.942781103,6.59942393 1.04320121,6.91227412 1.28499998,7.09 L4.78499999,9.62500001 L3.44499999,13.73 C3.37621334,13.941449 3.41275416,14.173046 3.54330246,14.3530444 C3.67385076,14.5330428 3.88264396,14.6397094 4.10499999,14.64 C4.24769442,14.6338332 4.38527181,14.5850716 4.49999999,14.5 L8,11.965 L11.5,14.5 C11.6181025,14.5851929 11.7594023,14.6322928 11.905,14.635 C12.127356,14.6347094 12.3361492,14.5280428 12.4666975,14.3480444 C12.5972458,14.168046 12.6337867,13.936449 12.565,13.725 L11.235,9.62000001 L14.735,7.085 C14.9754478,6.90385332 15.0719326,6.58849659 14.9740047,6.30382239 C14.8760768,6.0191482 14.6060036,5.82988739 14.305,5.83499999 Z M10.635,8.835 L10.05,9.265 L10.27,9.95500001 L11.315,13.16 L8.59,11.16 L8,10.73 L7.41,11.16 L4.68499999,13.16 L5.72999999,9.95500001 L5.94999999,9.265 L5.36499999,8.835 L2.63999998,6.835 L6.735,6.835 L6.96,6.14499999 L8,2.94499998 L9.04,6.14499999 L9.265,6.835 L13.36,6.835 L10.635,8.835 Z" id="Style"></path>
                    </g>
                </g>
            </g>
        </g>
    </g>
</svg>