<?xml version="1.0" encoding="UTF-8"?>
<svg width="24px" height="24px" viewBox="0 0 24 24" version="1.1" xmlns="http://www.w3.org/2000/svg" xmlns:xlink="http://www.w3.org/1999/xlink">
    <title>切片</title>
    <g id="light" stroke="none" stroke-width="1" fill="none" fill-rule="evenodd">
        <g id="文档/详情页-light" transform="translate(-1256.000000, -72.000000)" fill="#ffffff" fill-rule="nonzero">
            <g id="编组-9" transform="translate(300.000000, 60.000000)">
                <g id="icon/24/make_comment" transform="translate(956.000000, 12.000000)">
                    <path d="M21.9878209,11.7 L21.9878209,11.7 C20.3582098,7.6164597 16.388065,4.95484182 11.9939104,5 C7.62898705,4.97475246 3.69112859,7.61876858 2.05996346,11.67 L2.05996346,11.67 C2.02155037,11.7758375 2.00127745,11.8874065 1.99998995,12 C1.99947104,12.1062688 2.01984591,12.2116031 2.05996346,12.31 L2.05996346,12.31 C3.68477833,16.3690887 7.62404986,19.0219846 11.9939104,19 C16.3588338,19.0252475 20.2966923,16.3812314 21.9278574,12.33 L21.9278574,12.33 C21.9706365,12.225391 21.9910622,12.1129814 21.9878209,12 L21.9878209,12 C22.0040463,11.900659 22.0040463,11.799341 21.9878209,11.7 Z M11.9939104,17 C8.61239363,16.9923837 5.53329177,15.0497746 4.06873946,12 C5.52822989,8.94598178 8.61074867,7.00199156 11.9939104,7.00199156 C15.3770722,7.00199156 18.459591,8.94598178 19.9190814,12 C18.4545291,15.0497746 15.3754272,16.9923837 11.9939104,17 Z M11.9939104,10 C13.0978073,10 13.9926925,10.8954305 13.9926925,12 C13.9926925,13.1045695 13.0978073,14 11.9939104,14 C10.8900136,14 9.99512835,13.1045695 9.99512835,12 C9.99512835,10.8954305 10.8900136,10 11.9939104,10 L11.9939104,10 Z M11.9939104,8 C9.78611671,8 7.99634626,9.790861 7.99634626,12 C7.99634626,14.209139 9.78611671,16 11.9939104,16 C14.2017042,16 15.9914746,14.209139 15.9914746,12 C15.9914746,9.790861 14.2017042,8 11.9939104,8 L11.9939104,8 Z" id="Icon-color"></path>
                </g>
            </g>
        </g>
    </g>
</svg>