<!-- Generated by IcoMoon.io -->
<svg version="1.1" xmlns="http://www.w3.org/2000/svg" width="24" height="24" viewBox="0 0 24 24">
<path d="M23.237 18.494l-0.038 0.208-0.019 0.122c-0.016 0.1-0.071 0.187-0.151 0.245l-0.042 0.026-0.053 0.024-0.896 0.313c-0.203 0.071-0.336 0.262-0.335 0.473l0.003 0.058 0.122 1.029c0.009 0.074-0.005 0.148-0.037 0.213l-0.028 0.047-0.035 0.043-0.105 0.109c-0.149 0.137-0.315 0.262-0.489 0.374l-0.132 0.081-0.148 0.089c-0.151 0.085-0.308 0.161-0.467 0.224l-0.16 0.060-0.109 0.046c-0.114 0.048-0.242 0.036-0.345-0.028l-0.042-0.031-0.738-0.624c-0.173-0.147-0.421-0.157-0.605-0.031l-0.048 0.038-0.696 0.612c-0.079 0.070-0.182 0.101-0.284 0.091l-0.051-0.009-0.058-0.019-0.083-0.036c-0.404-0.135-0.78-0.329-1.132-0.586l-0.149-0.114-0.258-0.216c-0.086-0.072-0.134-0.178-0.134-0.288l0.004-0.055 0.151-0.995c0.033-0.216-0.079-0.426-0.27-0.522l-0.054-0.023-0.958-0.346c-0.089-0.032-0.161-0.096-0.204-0.177l-0.022-0.051-0.015-0.054-0.059-0.318c-0.090-0.557-0.091-1.124-0.002-1.655l0.037-0.197 0.022-0.138c0.019-0.121 0.096-0.223 0.203-0.277l0.048-0.020 0.916-0.306c0.211-0.070 0.347-0.27 0.341-0.487l-0.005-0.060-0.151-1.032c-0.011-0.076 0.001-0.152 0.035-0.22l0.029-0.049 0.036-0.044 0.105-0.109c0.186-0.171 0.399-0.325 0.635-0.462 0.217-0.124 0.426-0.227 0.631-0.308l0.152-0.057 0.109-0.046c0.116-0.049 0.247-0.036 0.35 0.032l0.042 0.032 0.713 0.629c0.172 0.152 0.423 0.165 0.609 0.041l0.049-0.037 0.734-0.635c0.079-0.068 0.182-0.1 0.283-0.089l0.050 0.009 0.057 0.019 0.098 0.041c0.489 0.187 0.928 0.429 1.323 0.748l0.146 0.123 0.087 0.092c0.066 0.070 0.103 0.162 0.103 0.257l-0.004 0.057-0.154 1.021c-0.032 0.214 0.077 0.423 0.266 0.52l0.053 0.024 0.927 0.346c0.088 0.033 0.158 0.096 0.201 0.177l0.022 0.050 0.014 0.054 0.059 0.309c0.091 0.54 0.091 1.093 0 1.647zM22.546 18.383c0.068-0.419 0.077-0.835 0.028-1.234l-0.025-0.17-0.024-0.129-0.755-0.282c-0.505-0.189-0.819-0.689-0.777-1.22l0.010-0.084 0.13-0.855-0.053-0.044c-0.288-0.232-0.61-0.422-0.991-0.583l-0.076-0.031-0.582 0.504c-0.43 0.372-1.058 0.389-1.506 0.052l-0.073-0.059-0.562-0.497-0.086 0.032c-0.128 0.051-0.26 0.112-0.396 0.185l-0.138 0.076c-0.165 0.096-0.312 0.199-0.422 0.29l-0.054 0.046 0.128 0.873c0.080 0.546-0.223 1.073-0.726 1.282l-0.081 0.030-0.73 0.244-0.028 0.146c-0.066 0.398-0.074 0.821-0.025 1.234l0.025 0.176 0.025 0.133 0.782 0.282c0.512 0.185 0.832 0.688 0.789 1.223l-0.010 0.085-0.123 0.814 0.104 0.088c0.283 0.225 0.583 0.399 0.905 0.525l0.104 0.037 0.546-0.48c0.423-0.372 1.044-0.398 1.494-0.073l0.073 0.057 0.588 0.497 0.094-0.035c0.086-0.034 0.171-0.073 0.251-0.113l0.116-0.062 0.155-0.093c0.154-0.090 0.299-0.192 0.408-0.282l0.058-0.050-0.104-0.875c-0.063-0.529 0.231-1.033 0.713-1.242l0.082-0.032 0.714-0.25 0.025-0.139zM19.032 15.639c-0.125-0.023-0.251-0.035-0.38-0.035-1.131 0-2.048 0.917-2.048 2.048s0.917 2.049 2.048 2.049c1.131 0 2.049-0.917 2.049-2.049 0-0.432-0.135-0.846-0.381-1.19-0.112-0.157-0.331-0.194-0.488-0.081s-0.194 0.331-0.081 0.488c0.162 0.227 0.251 0.498 0.251 0.783 0 0.745-0.604 1.348-1.349 1.348s-1.348-0.604-1.348-1.349c0-0.745 0.604-1.348 1.348-1.348 0.085 0 0.169 0.008 0.251 0.023 0.19 0.036 0.373-0.089 0.409-0.279s-0.089-0.373-0.279-0.409z"></path>
<path d="M11.793 1.999l-0.311 0.003c-0.103 0.002-0.206 0.004-0.309 0.006l-0.306 0.009c-0.101 0.004-0.202 0.008-0.303 0.012l-0.3 0.015-0.297 0.018c-0.049 0.003-0.098 0.007-0.147 0.010l-0.291 0.022c-0.096 0.008-0.192 0.016-0.288 0.025l-0.284 0.028c-0.047 0.005-0.094 0.010-0.14 0.015l-0.278 0.032-0.274 0.035c-0.090 0.012-0.18 0.025-0.269 0.038l-0.265 0.040-0.26 0.043c-2.964 0.507-4.973 1.53-4.973 2.848 0 0.011 0 0.022 0 0.033-0 0.006-0 0.012-0 0.018v2.701l0.001 0.057c0.057 1.291 2.051 2.291 4.971 2.791l0.26 0.043 0.265 0.040c0.089 0.013 0.179 0.026 0.269 0.038l0.274 0.035 0.278 0.032c0.047 0.005 0.093 0.010 0.14 0.015l0.284 0.028c0.095 0.009 0.191 0.017 0.288 0.025l0.291 0.022c0.049 0.003 0.098 0.007 0.147 0.010l0.296 0.018 0.3 0.015c0.1 0.005 0.201 0.009 0.303 0.012l0.306 0.009c0.102 0.003 0.205 0.005 0.309 0.006l0.311 0.003 0.157 0c0.052 0 0.105-0 0.157-0l0.311-0.003c0.103-0.002 0.206-0.004 0.309-0.006l0.306-0.009c0.101-0.004 0.202-0.008 0.303-0.012l0.3-0.015 0.297-0.018c0.098-0.006 0.196-0.013 0.293-0.021l0.289-0.024c0.048-0.004 0.096-0.008 0.143-0.013l0.284-0.028c0.047-0.005 0.094-0.010 0.14-0.015l0.278-0.032c0.046-0.006 0.092-0.011 0.137-0.017l0.271-0.036c0.045-0.006 0.090-0.013 0.134-0.019l0.265-0.040c0.044-0.007 0.087-0.014 0.131-0.021l0.258-0.044c2.893-0.515 4.844-1.527 4.844-2.826v-2.75l-0-0.001v-0.002c0-1.299-1.951-2.311-4.844-2.826l-0.258-0.044c-0.043-0.007-0.087-0.014-0.131-0.021l-0.265-0.040c-0.045-0.006-0.089-0.013-0.134-0.019l-0.271-0.036c-0.046-0.006-0.091-0.011-0.137-0.017l-0.278-0.032c-0.047-0.005-0.093-0.010-0.14-0.015l-0.284-0.028c-0.048-0.004-0.095-0.009-0.143-0.013l-0.29-0.024c-0.097-0.007-0.195-0.014-0.293-0.021l-0.296-0.018-0.3-0.015c-0.1-0.005-0.201-0.009-0.303-0.012l-0.306-0.009c-0.102-0.003-0.205-0.005-0.309-0.006l-0.311-0.003h-0.313zM20.5 5.193l-0 0.008v0.017c-0.009 0.322-0.331 0.648-0.896 0.948l-0.122 0.063c-0.042 0.021-0.085 0.041-0.129 0.062l-0.136 0.061c-0.046 0.020-0.094 0.040-0.143 0.060l-0.149 0.059c-0.051 0.020-0.103 0.039-0.156 0.058l-0.162 0.057c-0.055 0.019-0.111 0.037-0.168 0.056l-0.174 0.055c-0.030 0.009-0.059 0.018-0.089 0.027l-0.183 0.053-0.189 0.051c-0.032 0.008-0.064 0.017-0.096 0.025l-0.197 0.049c-0.033 0.008-0.067 0.016-0.1 0.024l-0.205 0.047-0.21 0.045c-0.035 0.007-0.071 0.015-0.107 0.022l-0.217 0.043c-0.037 0.007-0.073 0.014-0.11 0.021l-0.224 0.040-0.229 0.039-0.233 0.037-0.237 0.035-0.241 0.033-0.245 0.031-0.249 0.029c-0.042 0.005-0.084 0.009-0.126 0.013l-0.255 0.025-0.258 0.023-0.261 0.021c-0.044 0.003-0.088 0.006-0.132 0.009l-0.266 0.017c-0.089 0.005-0.179 0.010-0.269 0.015l-0.272 0.012-0.274 0.009c-0.046 0.001-0.092 0.003-0.138 0.004l-0.278 0.006c-0.047 0.001-0.093 0.001-0.14 0.002l-0.282 0.001-0.282-0.001c-0.047-0-0.093-0.001-0.14-0.002l-0.278-0.006c-0.046-0.001-0.092-0.002-0.138-0.004l-0.274-0.009-0.272-0.012c-0.045-0.002-0.090-0.005-0.135-0.007l-0.267-0.016c-0.044-0.003-0.089-0.006-0.133-0.009l-0.263-0.019c-0.044-0.003-0.087-0.007-0.13-0.011l-0.258-0.023-0.255-0.025-0.251-0.027-0.247-0.030c-0.041-0.005-0.082-0.010-0.122-0.016l-0.241-0.033-0.237-0.035-0.233-0.037-0.229-0.039-0.224-0.040-0.22-0.042c-0.036-0.007-0.072-0.014-0.108-0.022l-0.212-0.045c-0.035-0.008-0.070-0.015-0.104-0.023l-0.205-0.047-0.2-0.049c-0.033-0.008-0.065-0.017-0.098-0.025l-0.191-0.051c-0.031-0.009-0.063-0.017-0.094-0.026l-0.183-0.053c-0.030-0.009-0.060-0.018-0.089-0.027l-0.174-0.055c-0.057-0.018-0.113-0.037-0.168-0.056l-0.162-0.057c-0.053-0.019-0.105-0.039-0.156-0.058l-0.149-0.059c-0.049-0.020-0.096-0.040-0.143-0.060l-0.136-0.061c-0.044-0.021-0.087-0.041-0.129-0.062l-0.122-0.063c-0.573-0.305-0.896-0.635-0.896-0.962s0.323-0.657 0.896-0.962l0.122-0.063c0.042-0.021 0.085-0.041 0.129-0.062l0.136-0.061c0.046-0.020 0.094-0.040 0.143-0.060l0.149-0.059c0.051-0.020 0.103-0.039 0.156-0.058l0.162-0.057c0.055-0.019 0.111-0.037 0.168-0.056l0.174-0.055c0.030-0.009 0.059-0.018 0.089-0.027l0.183-0.053 0.189-0.051c0.032-0.008 0.064-0.017 0.096-0.025l0.197-0.049c0.033-0.008 0.067-0.016 0.1-0.024l0.205-0.047 0.21-0.045c0.035-0.007 0.071-0.015 0.107-0.022l0.217-0.043c0.037-0.007 0.073-0.014 0.11-0.021l0.224-0.040 0.229-0.038 0.233-0.037 0.237-0.035 0.241-0.033 0.245-0.031 0.249-0.029c0.042-0.005 0.084-0.009 0.126-0.013l0.255-0.025 0.258-0.023 0.261-0.021c0.044-0.003 0.088-0.006 0.132-0.009l0.266-0.017c0.089-0.005 0.179-0.010 0.269-0.015l0.272-0.012 0.274-0.009c0.046-0.001 0.092-0.003 0.138-0.004l0.278-0.006c0.093-0.001 0.187-0.002 0.28-0.003l0.141-0c0.141 0 0.282 0.001 0.422 0.003l0.278 0.006c0.046 0.001 0.092 0.002 0.138 0.004l0.274 0.009 0.272 0.012c0.045 0.002 0.090 0.005 0.135 0.007l0.268 0.016c0.044 0.003 0.089 0.006 0.133 0.009l0.263 0.019c0.044 0.003 0.087 0.007 0.13 0.011l0.258 0.023 0.255 0.025 0.251 0.027 0.247 0.030c0.041 0.005 0.082 0.010 0.122 0.016l0.241 0.033 0.237 0.035 0.233 0.037 0.229 0.038 0.224 0.040 0.22 0.042c0.036 0.007 0.072 0.014 0.108 0.022l0.212 0.045c0.035 0.008 0.070 0.015 0.104 0.023l0.205 0.047 0.2 0.049c0.033 0.008 0.065 0.016 0.098 0.025l0.191 0.051c0.031 0.009 0.063 0.017 0.094 0.026l0.183 0.053c0.030 0.009 0.060 0.018 0.089 0.027l0.174 0.055c0.057 0.018 0.113 0.037 0.168 0.056l0.162 0.057c0.053 0.019 0.105 0.039 0.156 0.058l0.149 0.059c0.049 0.020 0.096 0.040 0.143 0.060l0.136 0.061c0.044 0.020 0.087 0.041 0.129 0.062l0.122 0.063c0.567 0.301 0.889 0.628 0.896 0.951zM20.5 6.627v1.324l-0.001 0.034c-0.021 0.316-0.342 0.634-0.895 0.928l-0.122 0.063c-0.042 0.021-0.085 0.041-0.129 0.062l-0.136 0.061c-0.046 0.020-0.094 0.040-0.143 0.060l-0.149 0.059c-0.051 0.020-0.103 0.039-0.156 0.058l-0.162 0.057c-0.055 0.019-0.111 0.037-0.168 0.056l-0.174 0.055c-0.030 0.009-0.059 0.018-0.089 0.027l-0.183 0.053c-0.031 0.009-0.062 0.017-0.094 0.026l-0.191 0.051c-0.032 0.008-0.065 0.017-0.098 0.025l-0.2 0.049-0.205 0.047c-0.035 0.008-0.069 0.015-0.104 0.023l-0.212 0.045c-0.036 0.007-0.072 0.015-0.108 0.022l-0.22 0.042-0.224 0.040-0.229 0.039-0.233 0.037-0.237 0.035-0.241 0.033c-0.041 0.005-0.081 0.010-0.122 0.016l-0.247 0.030-0.251 0.027-0.255 0.025-0.258 0.023c-0.043 0.004-0.087 0.007-0.13 0.011l-0.263 0.020c-0.044 0.003-0.088 0.006-0.133 0.009l-0.267 0.016c-0.045 0.002-0.090 0.005-0.135 0.007l-0.272 0.012-0.274 0.009c-0.046 0.001-0.092 0.003-0.138 0.004l-0.278 0.006c-0.047 0.001-0.093 0.001-0.14 0.002l-0.282 0.001-0.282-0.001c-0.047-0-0.093-0.001-0.14-0.002l-0.278-0.006c-0.046-0.001-0.092-0.002-0.138-0.004l-0.274-0.009-0.272-0.012c-0.090-0.004-0.18-0.009-0.269-0.015l-0.266-0.017c-0.044-0.003-0.088-0.006-0.132-0.009l-0.261-0.021-0.258-0.023-0.255-0.025c-0.042-0.004-0.084-0.009-0.126-0.013l-0.249-0.029-0.245-0.031-0.241-0.033-0.237-0.035-0.233-0.037-0.229-0.039-0.224-0.040c-0.037-0.007-0.074-0.014-0.11-0.021l-0.217-0.043c-0.036-0.007-0.071-0.015-0.107-0.022l-0.21-0.045-0.205-0.047c-0.034-0.008-0.067-0.016-0.1-0.024l-0.197-0.049c-0.032-0.008-0.064-0.017-0.096-0.025l-0.189-0.051-0.183-0.053c-0.030-0.009-0.060-0.018-0.089-0.027l-0.174-0.055c-0.057-0.018-0.113-0.037-0.168-0.056l-0.162-0.057c-0.053-0.019-0.105-0.039-0.156-0.058l-0.149-0.059c-0.049-0.020-0.096-0.040-0.143-0.060l-0.136-0.061c-0.044-0.021-0.087-0.041-0.129-0.062l-0.122-0.063c-0.573-0.305-0.896-0.635-0.896-0.962v-1.324c0.843 0.612 2.228 1.092 3.944 1.397l0.258 0.044c0.043 0.007 0.087 0.014 0.131 0.021l0.265 0.040c0.045 0.006 0.089 0.013 0.134 0.019l0.271 0.036c0.046 0.006 0.091 0.012 0.137 0.017l0.278 0.032c0.047 0.005 0.093 0.010 0.14 0.015l0.284 0.028c0.048 0.004 0.095 0.009 0.143 0.013l0.289 0.024c0.097 0.007 0.195 0.014 0.293 0.021l0.297 0.018 0.3 0.015c0.1 0.005 0.201 0.009 0.303 0.012l0.306 0.009c0.102 0.003 0.205 0.005 0.309 0.006l0.311 0.003c0.052 0 0.104 0 0.157 0l0.157-0 0.311-0.003c0.103-0.002 0.206-0.004 0.309-0.006l0.306-0.009c0.101-0.004 0.202-0.008 0.303-0.012l0.3-0.015 0.296-0.018c0.049-0.003 0.098-0.007 0.147-0.010l0.291-0.022c0.096-0.008 0.192-0.016 0.288-0.025l0.284-0.028c0.047-0.005 0.094-0.010 0.14-0.015l0.278-0.032 0.274-0.035c0.091-0.012 0.18-0.025 0.269-0.038l0.265-0.040 0.26-0.043c1.776-0.304 3.209-0.793 4.073-1.42zM2.95 10.501c-0.249 0-0.45 0.201-0.45 0.45v2.75l0.001 0.057c0.057 1.291 2.051 2.291 4.971 2.791l0.26 0.043 0.265 0.040c0.089 0.013 0.179 0.025 0.269 0.038l0.274 0.035 0.278 0.032c0.047 0.005 0.093 0.010 0.14 0.015l0.284 0.028c0.095 0.009 0.191 0.017 0.288 0.025l0.291 0.022c0.049 0.003 0.098 0.007 0.147 0.010l0.296 0.018 0.3 0.015c0.1 0.005 0.201 0.009 0.303 0.012l0.306 0.009c0.102 0.003 0.205 0.005 0.309 0.006l0.311 0.003 0.157 0c0.249 0 0.45-0.201 0.45-0.45v-2.75c0-0.012-0-0.025-0.002-0.037-0-0.003-0.001-0.006-0.001-0.009-0.023-0.227-0.215-0.404-0.448-0.404l-0.282-0.001c-0.047-0-0.093-0.001-0.14-0.002l-0.278-0.006c-0.046-0.001-0.092-0.002-0.138-0.004l-0.274-0.009-0.272-0.012c-0.090-0.004-0.18-0.009-0.269-0.015l-0.266-0.017c-0.044-0.003-0.088-0.006-0.132-0.009l-0.261-0.021-0.258-0.023-0.255-0.025c-0.042-0.004-0.084-0.009-0.126-0.013l-0.249-0.029-0.245-0.031-0.241-0.033-0.237-0.035-0.233-0.037-0.229-0.039-0.224-0.040c-0.037-0.007-0.074-0.014-0.11-0.021l-0.217-0.043c-0.036-0.007-0.071-0.015-0.107-0.022l-0.21-0.045-0.205-0.047c-0.034-0.008-0.067-0.016-0.1-0.024l-0.197-0.049c-0.032-0.008-0.065-0.017-0.096-0.025l-0.189-0.051-0.183-0.053c-0.030-0.009-0.060-0.018-0.089-0.027l-0.174-0.055c-0.057-0.018-0.113-0.037-0.168-0.056l-0.162-0.057c-0.053-0.019-0.105-0.039-0.156-0.058l-0.149-0.059c-0.049-0.020-0.096-0.040-0.143-0.060l-0.136-0.061c-0.044-0.021-0.087-0.041-0.129-0.062l-0.122-0.063c-0.573-0.305-0.896-0.636-0.896-0.962l-0.001-0.037c-0.019-0.231-0.212-0.413-0.449-0.413zM3.4 13.701v-1.322c0.863 0.627 2.297 1.116 4.073 1.42l0.26 0.043 0.265 0.040c0.089 0.013 0.179 0.025 0.269 0.038l0.274 0.035 0.278 0.032c0.047 0.005 0.093 0.010 0.14 0.015l0.284 0.028c0.095 0.009 0.191 0.017 0.288 0.025l0.291 0.022c0.049 0.003 0.098 0.007 0.147 0.010l0.296 0.018 0.3 0.015c0.1 0.005 0.201 0.009 0.303 0.012l0.306 0.009c0.102 0.003 0.205 0.005 0.309 0.006l0.018 0v1.85l-0.111-0.002-0.266-0.006c-0.044-0.001-0.088-0.003-0.132-0.004l-0.262-0.010-0.26-0.012c-0.043-0.002-0.086-0.005-0.129-0.007l-0.256-0.016-0.253-0.018c-0.042-0.003-0.084-0.007-0.125-0.010l-0.249-0.021-0.245-0.024-0.242-0.026-0.239-0.028c-0.040-0.005-0.079-0.010-0.118-0.015l-0.234-0.030c-0.039-0.005-0.077-0.011-0.115-0.016l-0.228-0.033-0.224-0.035-0.22-0.037-0.216-0.038c-0.036-0.007-0.071-0.013-0.106-0.020l-0.209-0.041c-0.035-0.007-0.069-0.014-0.103-0.021l-0.203-0.043c-0.033-0.007-0.067-0.015-0.1-0.022l-0.196-0.045-0.191-0.047c-0.031-0.008-0.063-0.016-0.094-0.024l-0.183-0.049-0.178-0.050-0.173-0.051-0.168-0.053c-0.027-0.009-0.055-0.018-0.082-0.027l-0.159-0.054c-0.052-0.018-0.103-0.037-0.153-0.055l-0.148-0.056c-0.024-0.009-0.048-0.019-0.072-0.028l-0.139-0.058c-0.836-0.357-1.32-0.763-1.32-1.164zM3.398 16.164l0.001 0.037c0 0.327 0.323 0.657 0.896 0.962l0.122 0.063c0.042 0.021 0.085 0.041 0.129 0.062l0.136 0.061c0.046 0.020 0.094 0.040 0.143 0.060l0.149 0.059c0.051 0.020 0.103 0.039 0.156 0.058l0.162 0.057c0.055 0.019 0.111 0.038 0.168 0.056l0.174 0.055c0.030 0.009 0.059 0.018 0.089 0.027l0.183 0.053 0.189 0.051c0.032 0.008 0.064 0.017 0.096 0.025l0.197 0.049c0.033 0.008 0.067 0.016 0.1 0.024l0.205 0.047 0.21 0.045c0.035 0.007 0.071 0.015 0.107 0.022l0.217 0.043c0.037 0.007 0.073 0.014 0.11 0.021l0.224 0.040 0.229 0.039 0.233 0.037 0.237 0.035 0.241 0.033 0.245 0.031 0.249 0.029c0.042 0.005 0.084 0.009 0.126 0.013l0.255 0.025 0.258 0.023 0.261 0.021c0.044 0.003 0.088 0.006 0.132 0.009l0.266 0.017c0.089 0.005 0.179 0.010 0.269 0.015l0.272 0.012 0.274 0.009c0.046 0.001 0.092 0.003 0.138 0.004l0.278 0.006c0.047 0.001 0.187 0.002 0.14 0.002l0.282 0.001c0.233 0 0.425 0.177 0.448 0.404 0 0.003 0.001 0.006 0.001 0.009 0.001 0.012 0.001 0.024 0.001 0.037v2.75c0 0.249-0.201 0.45-0.45 0.45l-0.157-0-0.311-0.003c-0.103-0.001-0.206-0.004-0.309-0.006l-0.306-0.009c-0.101-0.004-0.202-0.008-0.303-0.012l-0.3-0.015-0.296-0.018c-0.049-0.003-0.098-0.007-0.147-0.010l-0.291-0.022c-0.096-0.008-0.192-0.016-0.288-0.025l-0.284-0.028c-0.047-0.005-0.094-0.010-0.14-0.015l-0.278-0.032-0.274-0.035c-0.090-0.012-0.18-0.025-0.269-0.038l-0.265-0.040-0.26-0.043c-2.921-0.5-4.914-1.5-4.971-2.791l-0.001-0.057v-2.75c0-0.249 0.201-0.45 0.45-0.45 0.236 0 0.43 0.182 0.449 0.413zM3.4 17.63v1.322c0 0.4 0.484 0.806 1.32 1.164l0.139 0.058c0.024 0.009 0.047 0.019 0.072 0.028l0.148 0.056c0.050 0.019 0.101 0.037 0.153 0.055l0.159 0.054c0.027 0.009 0.054 0.018 0.082 0.027l0.168 0.053 0.173 0.051 0.178 0.050 0.183 0.049c0.031 0.008 0.062 0.016 0.094 0.024l0.191 0.047 0.196 0.045c0.033 0.007 0.066 0.015 0.1 0.022l0.203 0.043c0.034 0.007 0.069 0.014 0.103 0.021l0.209 0.041c0.035 0.007 0.071 0.013 0.106 0.020l0.216 0.038 0.22 0.037 0.224 0.035 0.228 0.033c0.038 0.005 0.077 0.011 0.115 0.016l0.234 0.030c0.039 0.005 0.079 0.010 0.118 0.015l0.239 0.028 0.242 0.026 0.245 0.024 0.249 0.021c0.042 0.003 0.084 0.007 0.125 0.010l0.253 0.018 0.256 0.016c0.043 0.002 0.086 0.005 0.129 0.007l0.26 0.012 0.262 0.010c0.044 0.001 0.088 0.003 0.132 0.004l0.266 0.006 0.111 0.002v-1.849l-0.018-0c-0.103-0.002-0.206-0.004-0.309-0.006l-0.306-0.009c-0.101-0.004-0.202-0.008-0.303-0.012l-0.3-0.015-0.296-0.018c-0.049-0.003-0.098-0.007-0.147-0.010l-0.291-0.022c-0.096-0.008-0.192-0.016-0.288-0.025l-0.284-0.028c-0.047-0.005-0.094-0.010-0.14-0.015l-0.278-0.032-0.274-0.035c-0.090-0.012-0.18-0.025-0.269-0.038l-0.265-0.040-0.26-0.043c-1.776-0.304-3.209-0.793-4.073-1.42z"></path>
</svg>
