<?xml version="1.0" standalone="no"?><!DOCTYPE svg PUBLIC "-//W3C//DTD SVG 1.1//EN" "http://www.w3.org/Graphics/SVG/1.1/DTD/svg11.dtd"><svg t="1623318576564" class="icon" viewBox="0 0 1024 1024" version="1.1" xmlns="http://www.w3.org/2000/svg" p-id="5762" xmlns:xlink="http://www.w3.org/1999/xlink" width="16" height="16"><defs><style type="text/css"></style></defs><path d="M170.809759 804.393373c0.408299 0.191358 0.858554 0.177032 1.281179 0.326435 7.345292 8.55791 14.950504 16.136515 22.99062 24.190959 84.646865 84.646865 197.177801 130.4654 316.8903 130.4654l0.027629 0 0.039909 0c135.493927 0 257.047354-59.774385 339.282287-155.119917 0.613984-0.191358 1.25355 0.026606 1.838881-0.273223 4.143367-2.057869 6.5553-5.750981 7.278777-9.975189 62.295811-77.001745 99.718119-174.799118 99.718119-281.320177 0-103.896278-35.159778-202.329125-99.786681-281.870716-0.845251-4.027733-3.229554-7.665587-7.211239-9.649777-0.407276-0.203638-0.857531-0.169869-1.281179-0.333598-7.345292-8.531304-14.936177-16.906042-22.99062-24.954345C744.25725 111.239524 631.713011 64.623833 512.000512 64.623833c-119.726825 0-232.271064 46.616714-316.91793 131.269719-8.040117 8.04728-15.632025 16.423041-22.99062 24.954345-0.422625 0.156566-0.858554 0.143263-1.281179 0.347924-3.966335 1.989307-6.364965 5.64251-7.209192 9.67536-64.626903 79.549777-99.774401 178.029696-99.761098 281.926997 0 103.903441 35.161824 202.369034 99.761098 281.918811C164.445818 798.74984 166.843424 802.402019 170.809759 804.393373zM177.010995 259.034615c17.090237 22.602787 53.532217 60.59917 120.734782 89.396029-12.961196 44.959981-21.451568 95.17464-22.705118 150.404522L92.09193 498.835166C94.926488 411.102009 124.514363 328.042291 177.010995 259.034615zM489.539964 93.107561c2.562359-0.128937 6.92369-0.143263 6.92369-0.225127l0 266.165012c-69.778226-1.369184-122.847909-12.565177-164.809603-27.318182C380.525108 189.727109 473.567177 106.639762 489.539964 93.107561zM532.864702 93.107561c15.972786 13.527085 108.252493 96.619548 157.12355 238.649332-42.697451 15.066137-95.834672 25.968441-165.613922 27.297716L524.37433 92.875271C524.37433 92.957135 530.302343 92.971461 532.864702 93.107561zM931.893744 498.835166 748.946039 498.835166c-1.255597-55.229882-9.744945-105.444541-22.706141-150.404522 67.188238-28.797883 103.645568-66.793242 120.735805-89.396029C899.47131 328.042291 929.059186 411.102009 931.893744 498.835166zM846.839603 766.382665c-17.132192-22.636556-53.574173-60.524468-120.600729-89.225137 12.961196-44.961004 21.451568-95.181803 22.706141-150.410662l182.947705 0C928.935366 616.551194 897.755226 699.317223 846.839603 766.382665zM532.850375 932.500053c-2.548032 0.10847-8.476045 0.10847-8.476045 0.191358L524.37433 666.540725c69.778226 1.362021 123.652228 12.565177 165.613922 27.324322C641.088542 835.915297 548.768927 919.007761 532.850375 932.500053zM489.553267 932.473447c-15.971763-13.519921-109.041462-96.612385-157.912519-238.635005 42.711777-15.072277 95.04468-25.975605 164.822906-27.311019l0 266.165012C496.463654 932.608523 492.102323 932.608523 489.553267 932.473447zM496.463654 638.615723c-69.778226 1.322112-127.563304 12.524245-172.891675 28.29237-12.156878-42.139749-19.352767-88.966241-20.606317-140.16225l193.497992 0L496.463654 638.615723zM524.37433 638.615723 524.37433 526.745842l196.646706 0c-1.255597 51.194986-10.031471 98.022501-22.175045 140.16225C653.518642 651.139967 594.152557 639.937834 524.37433 638.615723zM721.021036 498.835166 524.37433 498.835166 524.37433 386.965286c69.778226-1.322112 129.144312-12.517081 174.47166-28.29237C710.989565 400.818805 719.765439 447.625854 721.021036 498.835166zM496.463654 386.965286l0 111.86988L302.965661 498.835166c1.25355-51.209312 8.449439-98.016361 20.606317-140.163273C368.90035 374.447181 426.684404 385.643174 496.463654 386.965286zM275.040658 526.745842c1.25355 55.229882 9.743922 105.45068 22.705118 150.410662-67.202565 28.782533-103.658871 66.779939-120.734782 89.388866-52.483328-69.000514-82.071204-152.066371-84.919065-239.799528L275.040658 526.745842zM195.327152 788.951683c12.06171-17.293875 44.592614-55.453986 110.99086-84.673471 37.614689 109.845781 100.006691 185.102788 137.674593 223.220944-86.404905-13.96813-166.063153-54.431703-229.176586-117.531833C208.029452 803.165406 201.583646 796.119943 195.327152 788.951683zM580.031954 927.4572c37.670971-38.159088 100.048647-113.40177 137.64901-223.207641 20.891819 9.15859 37.968753 18.944468 51.597145 28.210505 32.668027 22.174022 50.79385 44.292785 59.202357 56.367799C765.544065 860.896248 678.525176 911.349337 580.031954 927.4572zM828.657498 236.642628c-12.06171 17.281595-44.605917 55.453986-110.99086 84.654029-37.614689-109.832478-100.017948-185.088462-137.674593-223.214804 86.405929 13.975293 166.063153 54.438866 229.16226 117.538997C815.956222 222.414579 822.387701 229.473345 828.657498 236.642628zM443.992605 98.081853c-37.668924 38.139645-100.073206 113.39563-137.688919 223.24141-20.892843-9.138124-37.982056-18.937305-51.611471-28.197202-32.804127-22.282492-50.943252-44.517913-59.310827-56.544831 6.242168-7.141654 12.674671-14.180977 19.434631-20.954241C277.916149 152.527882 357.574397 112.071472 443.992605 98.081853z" p-id="5763" fill="#d81e06"></path></svg>