<?xml version="1.0" encoding="UTF-8"?>
<svg width="24px" height="24px" viewBox="0 0 24 24" version="1.1" xmlns="http://www.w3.org/2000/svg" xmlns:xlink="http://www.w3.org/1999/xlink">
    <title>quickissue</title>
    <g id="页面-1" stroke="none" stroke-width="1" fill="none" fill-rule="evenodd">
        <g id="下载体验openEuler-赢开源三周年纪念礼包！" transform="translate(-1823.000000, -1041.000000)">
            <g id="编组-6" transform="translate(1810.000000, 977.000000)">
                <g id="quickissue" transform="translate(13.000000, 64.000000)">
                    <g id="编组" transform="translate(3.000000, 1.000000)" fill="#000000">
                        <polygon id="Fill-1" points="9.24670678 2.95555556e-05 4.70985511 2.61998178 4.70985511 18.7372173 9.24685456 21.3568001 13.7851101 18.7367001 13.7851101 12.8739123 11.2184318 10.6805946 11.2184318 17.2549323 9.24685456 18.3930429 7.27645956 17.2553018 7.27645956 4.10189733 9.24685456 2.963639 11.2184318 4.10226678 11.2184318 9.61984567 13.7851101 11.8130896 13.7851101 2.61998178 9.24692844 2.95555556e-05"></polygon>
                        <polygon id="Fill-2" points="14.457233 4.66620156 14.457233 8.042111 15.928213 6.785261 15.928213 14.5277821 14.457233 13.2709321 13.7851397 12.6965938 11.4232813 10.6786143 7.94865633 7.70968489 7.94865633 11.0856682 11.2183874 13.8793332 13.7851397 16.0725771 14.457233 16.6469154 15.6458836 17.6627399 18.4948913 16.018121 18.4948913 5.33866433 15.6153674 3.676386"></polygon>
                        <polygon id="Fill-3" points="0 5.33864956 0 16.0181062 2.84900778 17.6627251 4.03647611 16.6481568 4.03647611 13.2717301 2.56667833 14.5278412 2.56667833 6.78532011 4.03647611 8.040914 4.03647611 4.66493067 2.87945 3.67644511"></polygon>
                    </g>
                    <rect id="矩形" x="0" y="0" width="24" height="24"></rect>
                </g>
            </g>
        </g>
    </g>
</svg>