<svg width="24" height="24" xmlns="http://www.w3.org/2000/svg"><g fill="none" fill-rule="evenodd"><path d="M0 0h24v24H0z"/><path d="M11.75 1.9c3.9 0 7.075 3.096 7.203 6.964l.004.243v4.99a6.975 6.975 0 0 1-6.975 6.974.6.6 0 1 1 0-1.2 5.775 5.775 0 0 0 5.771-5.553l.004-.222V9.107a6.007 6.007 0 0 0-12.01-.225l-.004.225v4.725a.6.6 0 0 1-1.192.097l-.008-.097V9.107A7.207 7.207 0 0 1 11.75 1.9Z" fill="currentColor" fill-rule="nonzero"/><path d="M3.821 9.3c-1.06 0-1.921.86-1.921 1.921v2.643a1.921 1.921 0 1 0 3.843 0v-2.643c0-1.06-.86-1.921-1.922-1.921Zm0 1.2c.399 0 .722.323.722.721v2.643a.721.721 0 1 1-1.443 0v-2.643c0-.398.323-.721.721-.721ZM19.679 9.3c-1.062 0-1.922.86-1.922 1.921v2.643a1.921 1.921 0 1 0 3.843 0v-2.643c0-1.06-.86-1.921-1.921-1.921Zm0 1.2c.398 0 .721.323.721.721v2.643a.721.721 0 0 1-1.443 0v-2.643c0-.398.323-.721.722-.721ZM12.543 19.467h-1.586a1.004 1.004 0 1 0 0 2.009h1.586a1.004 1.004 0 1 0 0-2.009Zm-1.586.952h1.586a.053.053 0 0 1 0 .105h-1.586a.053.053 0 1 1 0-.105Z" fill="currentColor" fill-rule="nonzero"/></g></svg>