<svg id="icon-icon-chat_light" viewBox="0 0 32 32">
    <path fill="currentColor" d="M20.068 20.030c2.535 0 4.591-2.051 4.591-4.58v-6.87c0-2.53-2.055-4.58-4.591-4.58h-11.477c-2.535 0-4.591 2.051-4.591 4.58v14.313c0 0.316 0.257 0.573 0.574 0.573 0.152-0.001 0.296-0.063 0.402-0.172l2.295-2.29c0.659-0.64 1.548-0.991 2.468-0.973h10.329zM6.295 18.885v-10.305c0-1.265 1.028-2.29 2.295-2.29h11.477c1.268 0 2.295 1.025 2.295 2.29v6.87c0 1.265-1.028 2.29-2.295 2.29h-10.329c-1.242 0-2.45 0.402-3.443 1.145zM26.954 8.58v9.16c0 2.53-2.055 4.58-4.591 4.58h-13.773c0 1.265 1.028 2.29 2.295 2.29h12.625c0.917-0.002 1.797 0.36 2.445 1.008l2.295 2.29c0.105 0.109 0.25 0.171 0.402 0.172 0.317 0 0.574-0.256 0.574-0.573v-16.637c0-1.256-1.014-2.277-2.272-2.29z"></path>
</svg>