<?xml version="1.0" encoding="UTF-8"?>
<svg width="132px" height="26px" viewBox="0 0 132 26" version="1.1" xmlns="http://www.w3.org/2000/svg" xmlns:xlink="http://www.w3.org/1999/xlink">
    <title>openGauss_w</title>
    <defs>
        <polygon id="path-1" points="0.108571429 0.0462222222 16.2395238 0.0462222222 16.2395238 20.2292148 0.108571429 20.2292148"></polygon>
    </defs>
    <g id="PC" stroke="none" stroke-width="1" fill="none" fill-rule="evenodd">
        <g id="首页1" transform="translate(-253.000000, -7895.000000)">
            <g id="Footer/zh" transform="translate(0.000000, 7585.000000)">
                <g id="编组-20" transform="translate(0.000000, 221.000000)">
                    <g id="Footer/zh" transform="translate(0.000000, 38.000000)">
                        <g id="openGauss_w" transform="translate(253.000000, 51.000000)">
                            <path d="M9.71317829,16.155592 C10.2841254,15.3115223 10.5719582,14.098696 10.5719582,12.517113 C10.5719582,10.8648916 10.2676104,9.57304599 9.65891473,8.64157622 C9.05139872,7.70771193 8.15487024,7.24437157 6.96697,7.24437157 C5.76845298,7.24437157 4.87546343,7.7053174 4.28564206,8.63439265 C3.69582069,9.55987611 3.40091001,10.8241847 3.40091001,12.4225293 C3.40091001,14.0112959 3.72177283,15.2420812 4.35995956,16.1148851 C4.99932592,16.9864918 5.92180654,17.4234924 7.12858106,17.4234924 C8.27991237,17.4234924 9.14223121,16.9996616 9.71317829,16.155592 M3.34782609,19.1427605 C2.30384226,18.5728638 1.48399056,17.7228078 0.890630266,16.5937899 C0.29726997,15.4659691 0,14.1034851 0,12.5039432 C0,10.8972177 0.29726997,9.50240754 0.890630266,8.3183155 C1.48399056,7.136618 2.31563869,6.23148799 3.38203573,5.60651727 C4.44725312,4.98154655 5.67408156,4.66666667 7.06016178,4.66666667 C8.42854735,4.66666667 9.63414223,4.97436298 10.6781261,5.59215013 C11.7221099,6.20754275 12.537243,7.09830561 13.1223458,8.25605789 C13.706269,9.41620468 14,10.7882668 14,12.3674553 C14,13.9741808 13.6956522,15.351032 13.0881362,16.4992062 C12.4806202,17.6449858 11.6430738,18.5153952 10.5766768,19.1080399 C9.51027974,19.703079 8.29406808,20 6.92568251,20 C5.58442872,20 4.39180991,19.7138544 3.34782609,19.1427605" id="Fill-1" fill="#D8D8D8"></path>
                            <path d="M25.5662023,16.1661499 C26.2475971,15.2365222 26.5882944,13.8763553 26.5882944,12.0856493 C26.5882944,10.4248267 26.3067459,9.22100081 25.7424659,8.47417179 C25.1793689,7.7237349 24.4269955,7.3509217 23.4888948,7.3509217 C22.8382575,7.3509217 22.2384882,7.50846534 21.6884039,7.81994475 C21.1371366,8.13142417 20.6130778,8.54873443 20.1185934,9.07187553 L20.1185934,17.0272281 C20.4521929,17.1919875 20.8402094,17.3230735 21.2814598,17.4180807 C21.7238932,17.5154932 22.1615947,17.5623955 22.5945642,17.5623955 C23.8958389,17.5623955 24.8848076,17.0981829 25.5662023,16.1661499 L25.5662023,16.1661499 Z M16.7731346,8.57639476 C16.7731346,7.47599451 16.7376453,6.26375031 16.6666667,4.94206738 L19.8062875,4.94206738 C19.9234022,5.55781047 20.0050277,6.18437717 20.0499808,6.8277806 C21.3500725,5.3882406 22.8382575,4.66666667 24.5169018,4.66666667 C25.4928578,4.66666667 26.3942862,4.91801492 27.224736,5.41710356 C28.0551859,5.91859744 28.7259338,6.70751827 29.2357969,7.78386606 C29.74566,8.86382171 30,10.2324069 30,11.892027 C30,13.6286149 29.7101706,15.1078415 29.126963,16.3393277 C28.5461213,17.5696112 27.7310502,18.499239 26.6841156,19.1318188 C25.637181,19.7643986 24.4269955,20.0818911 23.0559252,20.0818911 C22.0634076,20.0818911 21.0827197,19.9111186 20.1185934,19.5719789 L20.1185934,25.7113704 L16.7731346,26 L16.7731346,8.57639476 Z" id="Fill-3" fill="#D8D8D8"></path>
                            <path d="M41.4704483,10.6134666 C41.4078683,9.43655813 41.1216224,8.55058432 40.6082342,7.96153145 C40.094846,7.37247859 39.4111009,7.07914942 38.5523635,7.07914942 C37.7214395,7.07914942 37.0295822,7.37487312 36.4756328,7.96991229 C35.9251601,8.5637542 35.5635865,9.4437417 35.3967063,10.6134666 L41.4704483,10.6134666 Z M44.6666667,12.7649463 L35.3039951,12.7649463 C35.4534919,15.8610656 36.8812443,17.4103225 39.5872522,17.4103225 C40.2594084,17.4103225 40.9466301,17.3241196 41.6489174,17.156503 C42.3535224,16.9864918 43.0268375,16.7614065 43.6711802,16.4776554 L44.3885331,18.7943573 C42.7881061,19.59772 40.9883501,20 38.9904239,20 C37.4699604,20 36.1870692,19.703079 35.1440683,19.1080399 C34.1010674,18.5153952 33.3164989,17.6617475 32.7903629,16.5458994 C32.2642269,15.4300513 32,14.0903152 32,12.517113 C32,10.8840478 32.2792925,9.47726504 32.8367185,8.29915931 C33.3929857,7.11865907 34.168283,6.22071263 35.1649283,5.59813644 C36.158097,4.9767575 37.305398,4.66666667 38.6056725,4.66666667 C39.958097,4.66666667 41.0880146,4.99471643 41.9942665,5.64842144 C42.9005185,6.29973192 43.5715157,7.17133859 44.0095761,8.25605789 C44.4464776,9.3431717 44.6666667,10.5440254 44.6666667,11.8598162 L44.6666667,12.7649463 Z" id="Fill-5" fill="#D8D8D8"></path>
                            <path d="M47.4402937,9.27142138 C47.4402937,7.92801675 47.4042527,6.70472556 47.3333333,5.60038165 L50.4072816,5.60038165 C50.4607618,5.90241446 50.5107542,6.28024701 50.5595839,6.7268824 C50.6084136,7.1781824 50.6421294,7.5478519 50.6595686,7.84288781 C51.1025241,7.34610797 51.544317,6.92046328 51.9837846,6.56945217 C52.4220896,6.21727492 52.940615,5.92223901 53.5405232,5.68784289 C54.1392688,5.45111447 54.8159094,5.33333333 55.5692825,5.33333333 C56.9783693,5.33333333 58.0712253,5.79746097 58.8432002,6.72105166 C59.6140125,7.64580849 60,8.99970846 60,10.778087 L60,20 L56.7400337,20 L56.7400337,11.0054862 C56.7400337,8.95889322 55.9727092,7.93501365 54.4392229,7.93501365 C53.7463056,7.93501365 53.0987303,8.12043148 52.4964969,8.49010098 C51.8931008,8.85860433 51.297843,9.35421802 50.7118862,9.97810819 L50.7118862,20 L47.4402937,20 L47.4402937,9.27142138 Z" id="Fill-7" fill="#D8D8D8"></path>
                            <g id="Group-11" transform="translate(63.333333, 0.000000)">
                                <mask id="mask-2" fill="white">
                                    <use xlink:href="#path-1"></use>
                                </mask>
                                <g id="Clip-10"></g>
                                <path d="M4.31095238,18.9729185 C2.92642857,18.137363 1.88,16.9723259 1.17047619,15.481363 C0.463333333,13.9892148 0.108571429,12.2706963 0.108571429,10.3258074 C0.108571429,8.18417778 0.522857143,6.33765926 1.355,4.78743704 C2.18595238,3.23721481 3.33714286,2.05914074 4.80857143,1.2544 C6.28,0.447288889 7.96452381,0.0455111111 9.86333333,0.0455111111 C10.98,0.0455111111 12.0466667,0.182992593 13.0645238,0.45202963 C14.0811905,0.724622222 15.0169048,1.08136296 15.8704762,1.52343704 L15.2311905,2.92195556 C14.3764286,2.48817778 13.5133333,2.14802963 12.6419048,1.90506667 C11.7704762,1.66091852 10.852619,1.53647407 9.89071429,1.53647407 C8.31809524,1.53647407 6.92880952,1.87899259 5.72166667,2.56165926 C4.51333333,3.24432593 3.56809524,4.24699259 2.88714286,5.56491852 C2.20619048,6.88758519 1.86571429,8.46980741 1.86571429,10.3127704 C1.86571429,11.9329185 2.13833333,13.3764741 2.68357143,14.6469926 C3.22761905,15.9163259 4.06809524,16.921363 5.20261905,17.657363 C6.33833333,18.3957333 7.75857143,18.7631407 9.46809524,18.7631407 C10.33,18.7631407 11.2097619,18.6730667 12.1038095,18.4929185 C12.9990476,18.3115852 13.827619,18.0626963 14.5907143,17.7462519 L14.5907143,12.6321778 L9.18238095,12.6321778 L9.18238095,11.1258074 L16.2395238,11.1258074 L16.2395238,18.5865481 C15.1942857,19.1115852 14.0704762,19.5157333 12.8669048,19.8001778 C11.6633333,20.0858074 10.4859524,20.2292148 9.33119048,20.2292148 C7.36928571,20.2292148 5.69547619,19.8096593 4.31095238,18.9729185" id="Fill-9" fill="#D8D8D8" mask="url(#mask-2)"></path>
                            </g>
                            <path d="M88.5784407,18.2861041 C89.2234564,18.0652288 89.8085264,17.7719353 90.3360485,17.4086377 C90.8599739,17.0453401 91.2795938,16.6566961 91.5901125,16.2414987 L91.5901125,12.4564442 C90.6489651,12.3369542 89.7054198,12.2790197 88.7630735,12.2790197 C86.8711873,12.2790197 85.5487852,12.5904177 84.799464,13.2168346 C84.0489439,13.8432515 83.6736838,14.6820949 83.6736838,15.7321579 C83.6736838,16.7061818 83.9410416,17.4327771 84.4757573,17.9071159 C85.0116718,18.3814547 85.7310201,18.6168136 86.6373991,18.6168136 C87.2860115,18.6168136 87.9346239,18.5081864 88.5784407,18.2861041 L88.5784407,18.2861041 Z M91.8646638,19.7223971 C91.819105,19.4725546 91.778342,19.1333963 91.7423746,18.7000945 C91.7040093,18.2679996 91.6812299,17.901081 91.6728375,17.5957179 C91.0961599,18.2679996 90.3444409,18.8364819 89.4152826,19.302372 C88.4873232,19.765848 87.474241,20 86.3760358,20 C85.5164145,20 84.757502,19.8370592 84.0992983,19.5172124 C83.4398956,19.1937448 82.9255616,18.716992 82.5562961,18.0869542 C82.1858317,17.4569165 82,16.6904912 82,15.7864715 C82,14.367076 82.5119362,13.2289043 83.5370077,12.3683354 C84.5608801,11.5077666 86.2393596,11.0768787 88.5724461,11.0768787 C89.5040023,11.0768787 90.509891,11.142055 91.5901125,11.2699937 L91.5901125,10.676165 C91.5901125,8.97313182 91.2604112,7.7734047 90.6022074,7.0781906 C89.9440037,6.38297649 89.019641,6.03416247 87.8303184,6.03416247 C87.0905885,6.03416247 86.3232836,6.1415827 85.5320004,6.35883711 C84.7419161,6.57488455 84.0669276,6.82714106 83.5082337,7.11198573 L83.1653443,5.78673384 C83.6604958,5.50913098 84.353468,5.25325357 85.2442611,5.02030856 C86.136253,4.78253568 87.0666102,4.66666667 88.0377305,4.66666667 C89.1347368,4.66666667 90.0614972,4.86219563 90.8216087,5.24721872 C91.5817201,5.63586272 92.1703868,6.28521201 92.5924045,7.20130143 C93.0120244,8.11739085 93.2230333,9.35453401 93.2230333,10.910317 L93.2230333,16.9186083 C93.2230333,17.5365764 93.2590007,18.4695634 93.3333333,19.7223971 L91.8646638,19.7223971 Z" id="Fill-12" fill="#D8D8D8"></path>
                            <path d="M98.3946884,18.6338254 C97.6855425,17.7218656 97.3333333,16.3462773 97.3333333,14.5047069 L97.3333333,5.33333333 L98.9147287,5.33333333 L98.9147287,14.4517544 C98.9147287,15.8873556 99.1806584,16.940522 99.7125178,17.6089003 C100.245559,18.2784553 101.020892,18.6114677 102.039698,18.6114677 C102.949769,18.6114677 103.830292,18.3667095 104.676539,17.8795464 C105.523968,17.3888532 106.281573,16.7816645 106.949352,16.0556269 L106.949352,5.33333333 L108.54493,5.33333333 L108.54493,16.0956354 C108.54493,17.0993795 108.586297,18.3125802 108.666667,19.7305306 L107.274377,19.7305306 C107.210554,19.3798674 107.120729,18.6444159 107.00372,17.5229996 C106.218931,18.2666881 105.405777,18.8656397 104.563076,19.3198545 C103.719192,19.7717159 102.765391,20 101.701672,20 C100.204192,20 99.1026523,19.5434318 98.3946884,18.6338254" id="Fill-14" fill="#D8D8D8"></path>
                            <path d="M113.180086,19.7501574 C112.473626,19.5835957 111.858437,19.3735831 111.333333,19.1164987 L111.78139,17.746589 C112.279231,18.0157431 112.85886,18.2233417 113.519092,18.3766268 C114.178139,18.5287049 114.834815,18.6047439 115.485564,18.6047439 C116.669715,18.6047439 117.574126,18.3512804 118.197612,17.8443535 C118.82347,17.3374265 119.134028,16.6566961 119.134028,15.7997481 C119.134028,15.2662678 119.000085,14.8196893 118.734569,14.4600126 C118.467869,14.1003359 118.092118,13.7913518 117.607315,13.5294395 C117.123698,13.2651134 116.412497,12.9416457 115.472526,12.5542086 C114.576412,12.1860831 113.849801,11.8203715 113.295064,11.4558669 C112.737956,11.0913623 112.314791,10.6701301 112.019643,10.1861356 C111.724494,9.70093409 111.578698,9.11314022 111.578698,8.42516793 C111.578698,7.66960537 111.752942,7.0081864 112.101431,6.44332494 C112.448734,5.87604954 112.964355,5.43912678 113.648294,5.13134971 C114.329862,4.82115869 115.154856,4.66666667 116.12209,4.66666667 C117.452036,4.66666667 118.809246,4.99375525 120.192532,5.64793241 L119.825078,6.94663098 C118.632631,6.33107683 117.420032,6.02088581 116.190839,6.02088581 C115.20464,6.02088581 114.449581,6.22848447 113.925663,6.64247481 C113.401744,7.05525819 113.1386,7.60804996 113.1386,8.29964316 C113.1386,8.76915407 113.267801,9.16624685 113.525019,9.48850756 C113.783422,9.80956129 114.136652,10.0883711 114.584709,10.3225231 C115.031581,10.559089 115.707222,10.86928 116.611633,11.256717 C117.543307,11.6622586 118.274659,12.0243493 118.809246,12.3393682 C119.341461,12.658008 119.784777,13.0816541 120.138007,13.6115134 C120.490052,14.1401658 120.666667,14.8112406 120.666667,15.6211167 C120.666667,16.4865134 120.46516,17.2493178 120.057404,17.9071159 C119.650834,18.5661209 119.049869,19.0790827 118.25925,19.4472082 C117.467446,19.8165407 116.512065,20 115.389552,20 C114.62264,20 113.885361,19.9179261 113.180086,19.7501574" id="Fill-16" fill="#D8D8D8"></path>
                            <path d="M124.51342,19.7501574 C123.80696,19.5835957 123.19177,19.3735831 122.666667,19.1164987 L123.114724,17.746589 C123.612565,18.0157431 124.192194,18.2233417 124.852426,18.3766268 C125.512658,18.5287049 126.168148,18.6047439 126.818898,18.6047439 C128.003048,18.6047439 128.907459,18.3512804 129.530946,17.8443535 C130.156803,17.3374265 130.467361,16.6566961 130.467361,15.7997481 C130.467361,15.2662678 130.333418,14.8196893 130.067903,14.4600126 C129.801202,14.1003359 129.425451,13.7913518 128.940649,13.5294395 C128.457032,13.2651134 127.74583,12.9416457 126.805859,12.5542086 C125.909745,12.1860831 125.18432,11.8203715 124.628397,11.4558669 C124.071289,11.0913623 123.648125,10.6701301 123.352976,10.1861356 C123.059013,9.70093409 122.912031,9.11314022 122.912031,8.42516793 C122.912031,7.66960537 123.086276,7.0081864 123.434764,6.44332494 C123.782068,5.87604954 124.297689,5.43912678 124.981627,5.13134971 C125.663195,4.82115869 126.488189,4.66666667 127.455423,4.66666667 C128.78537,4.66666667 130.142579,4.99375525 131.525866,5.64793241 L131.158412,6.94663098 C129.965964,6.33107683 128.754551,6.02088581 127.524172,6.02088581 C126.537973,6.02088581 125.782914,6.22848447 125.258996,6.64247481 C124.735077,7.05525819 124.471933,7.60804996 124.471933,8.29964316 C124.471933,8.76915407 124.601135,9.16624685 124.858352,9.48850756 C125.116756,9.80956129 125.469986,10.0883711 125.918043,10.3225231 C126.364914,10.559089 127.040555,10.86928 127.944967,11.256717 C128.87664,11.6622586 129.609178,12.0243493 130.142579,12.3393682 C130.674795,12.658008 131.11811,13.0816541 131.472526,13.6115134 C131.82457,14.1401658 132,14.8112406 132,15.6211167 C132,16.4865134 131.798493,17.2493178 131.390737,17.9071159 C130.984167,18.5661209 130.383202,19.0790827 129.592583,19.4472082 C128.800779,19.8165407 127.845398,20 126.722885,20 C125.955973,20 125.218694,19.9179261 124.51342,19.7501574" id="Fill-18" fill="#D8D8D8"></path>
                        </g>
                    </g>
                </g>
            </g>
        </g>
    </g>
</svg>