<?xml version="1.0" encoding="UTF-8"?>
<svg width="16px" height="16px" viewBox="0 0 16 16" version="1.1" xmlns="http://www.w3.org/2000/svg" xmlns:xlink="http://www.w3.org/1999/xlink">
    <title>icon_down</title>
    <g id="页面-1" stroke="none" stroke-width="1" fill="none" fill-rule="evenodd">
        <g id="手机文档目录" transform="translate(-161.000000, -142.000000)">
            <g id="博客内容" transform="translate(30.000000, 140.000000)"></g>
            <rect id="矩形" fill-opacity="0.102491259" fill="#000000" x="0" y="70" width="375" height="3308"></rect>
            <rect id="矩形" fill="#FBFBFB" x="0" y="70" width="375" height="844"></rect>
            <g id="编组-7" transform="translate(30.000000, 134.000000)">
                <path d="M153.995468,0.25 C155.032701,0.25 155.971726,0.669643863 156.651247,1.34911809 C157.330181,2.02800543 157.75,2.96624304 157.75,4.0042577 L157.75,4.0042577 L157.75,27.9957423 C157.75,29.0330322 157.330503,29.972104 156.650963,30.6515974 C155.972176,31.3303379 155.033964,31.75 153.995468,31.75 L153.995468,31.75 L4.00453201,31.75 C2.96729924,31.75 2.02827351,31.3303561 1.34875274,30.6508819 C0.669818896,29.9719946 0.25,29.033757 0.25,27.9957423 L0.25,27.9957423 L0.25,4.0042577 C0.25,2.96696785 0.669496891,2.02789597 1.34903678,1.34840262 C2.02782383,0.669662067 2.96603579,0.25 4.00453201,0.25 L4.00453201,0.25 Z" id="bgc" stroke-opacity="0.303567526" stroke="#000000" stroke-width="0.5" fill="#FFFFFF"></path>
                <g id="openEuler/icons/button_down" transform="translate(132.000000, 10.000000)" fill="#002FA7">
                    <path d="M3.5,1.3125 L3.50309359,7.21361412 C3.50452522,7.69482922 3.89427149,8.08457548 4.37548659,8.08600711 L10.2766007,8.0891007 L10.2735071,7.21361412 L4.37548659,7.21361412 L4.37548659,1.31559359 L3.5,1.3125 Z" id="Style备份-3" transform="translate(6.888300, 4.700800) rotate(-45.000000) translate(-6.888300, -4.700800) "></path>
                </g>
            </g>
        </g>
    </g>
</svg>