<?xml version="1.0" encoding="UTF-8"?>
<svg width="16px" height="16px" viewBox="0 0 16 16" version="1.1" xmlns="http://www.w3.org/2000/svg" xmlns:xlink="http://www.w3.org/1999/xlink">
    <title>icon_delete</title>
    <defs>
        <rect id="path-1" x="0" y="70" width="375" height="40"></rect>
        <filter x="-1.3%" y="-10.0%" width="102.7%" height="125.0%" filterUnits="objectBoundingBox" id="filter-2">
            <feOffset dx="0" dy="1" in="SourceAlpha" result="shadowOffsetOuter1"></feOffset>
            <feGaussianBlur stdDeviation="1.5" in="shadowOffsetOuter1" result="shadowBlurOuter1"></feGaussianBlur>
            <feColorMatrix values="0 0 0 0 0   0 0 0 0 0   0 0 0 0 0  0 0 0 0.0983937937 0" type="matrix" in="shadowBlurOuter1"></feColorMatrix>
        </filter>
    </defs>
    <g id="页面-1" stroke="none" stroke-width="1" fill="none" fill-rule="evenodd">
        <g id="手机文档目录" transform="translate(-341.000000, -84.000000)">
            <g id="矩形">
                <use fill="black" fill-opacity="1" filter="url(#filter-2)" xlink:href="#path-1"></use>
                <use fill="#FBFBFB" fill-rule="evenodd" xlink:href="#path-1"></use>
            </g>
            <g id="编组-3" transform="translate(20.000000, 80.000000)" stroke="#D0D2D3" stroke-width="2">
                <polyline id="Right" transform="translate(332.000000, 10.000000) scale(-1, 1) translate(-332.000000, -10.000000) " points="335 4 329 9.952 335 16"></polyline>
            </g>
            <rect id="矩形" fill-opacity="0.102491259" fill="#000000" x="0" y="70" width="375" height="3308"></rect>
            <rect id="矩形" fill="#FBFBFB" x="0" y="70" width="375" height="844"></rect>
            <path d="M344.93433,86.1987744 L349,90.264 L353.06567,86.1987744 C353.456195,85.8082501 354.08936,85.8082501 354.479884,86.1987744 L354.801226,86.5201161 C355.19175,86.9106404 355.19175,87.5438054 354.801226,87.9343297 L350.736,92 L354.801226,96.0656703 C355.19175,96.4561946 355.19175,97.0893596 354.801226,97.4798839 L354.479884,97.8012256 C354.08936,98.1917499 353.456195,98.1917499 353.06567,97.8012256 L349,93.736 L344.93433,97.8012256 C344.543805,98.1917499 343.91064,98.1917499 343.520116,97.8012256 L343.198774,97.4798839 C342.80825,97.0893596 342.80825,96.4561946 343.198774,96.0656703 L347.264,92 L343.198774,87.9343297 C342.80825,87.5438054 342.80825,86.9106404 343.198774,86.5201161 L343.520116,86.1987744 C343.91064,85.8082501 344.543805,85.8082501 344.93433,86.1987744 Z" id="形状结合" fill="#0041BD"></path>
        </g>
    </g>
</svg>