<?xml version="1.0" encoding="UTF-8"?>
<svg width="188px" height="40px" viewBox="0 0 188 40" version="1.1" xmlns="http://www.w3.org/2000/svg" xmlns:xlink="http://www.w3.org/1999/xlink">
    <title>切片</title>
    <defs>
        <filter id="filter-1">
            <feColorMatrix in="SourceGraphic" type="matrix" values="0 0 0 0 1.000000 0 0 0 0 1.000000 0 0 0 0 1.000000 0 0 0 1.000000 0"></feColorMatrix>
        </filter>
        <polygon id="path-2" points="0 40 188 40 188 0 0 0"></polygon>
    </defs>
    <g id="页面-1" stroke="none" stroke-width="1" fill="none" fill-rule="evenodd">
        <g id="banner样式" transform="translate(-866.000000, -5285.000000)">
            <g id="尾页" transform="translate(0.000000, 5209.000000)">
                <g id="编组" transform="translate(866.000000, 76.000000)" filter="url(#filter-1)">
                    <g>
                        <path d="M58.1190424,11.9442341 L58.1190424,8.0052199 L54.3523211,8.0052199 L54.3523211,11.6639683 L54.3523211,11.9442341 L58.1190424,11.9442341 Z M62.9863233,13.4700276 L59.6846445,13.4700276 L59.6846445,19.5264829 L58.1190424,19.5264829 L58.1190424,13.4700276 L54.3058521,13.4700276 C54.2540144,14.2173441 54.1610323,14.8739202 54.0268177,15.4395347 C53.8923831,16.0053702 53.6935695,16.5347415 53.4300249,17.0276045 C53.1665243,17.5207326 52.8305917,18.0006895 52.4224914,18.4677403 C52.014171,18.9348352 51.5103603,19.4330463 50.9111472,19.9624176 L49.7330952,18.7791664 C50.2703056,18.3222814 50.7224987,17.8994738 51.0894106,17.5102575 C51.4561024,17.1210412 51.7533107,16.7240016 51.9807274,16.319183 C52.2079241,15.9144087 52.3783986,15.486253 52.492239,15.0347161 C52.6058593,14.5832234 52.6833518,14.0616753 52.7247603,13.4700276 L49.252563,13.4700276 L49.252563,11.9442341 L52.7712733,11.9442341 L52.7712733,11.8196814 L52.7712733,8.0052199 L50.0431089,8.0052199 L50.0431089,6.47942647 L62.1802877,6.47942647 L62.1802877,8.0052199 L59.6846445,8.0052199 L59.6846445,11.9442341 L62.9863233,11.9442341 L62.9863233,13.4700276 Z" id="Fill-1" fill="#1D1E22"></path>
                        <path d="M73.4957916,9.48428615 L73.2633144,9.96693915 C73.3665056,10.7142557 73.5292353,11.4202462 73.7515474,12.0843803 C73.9736395,12.7487354 74.2500336,13.376582 74.5808615,13.9682298 C74.9114694,13.335256 75.1776544,12.6526467 75.3791523,11.9208882 C75.5806942,11.1891297 75.7330387,10.3771058 75.836406,9.48428615 L73.4957916,9.48428615 Z M70.7211581,18.1096754 C71.9403986,17.2378061 72.9273819,16.3296493 73.6818438,15.3850285 C73.3509719,14.824541 73.0618165,14.2538437 72.8137615,13.6724059 C72.5657506,13.0912334 72.3693132,12.4840718 72.2247135,11.8507886 L71.7907384,12.4735966 L71.0621512,11.6328434 C71.0517661,11.8612638 71.0389167,12.1415296 71.023383,12.4735966 C71.0079373,12.8058847 70.9948239,13.1612888 70.9847028,13.5400741 C70.9742296,13.9190805 70.9614242,14.300562 70.9459346,14.6844302 C70.9304009,15.0685637 70.9173314,15.4293159 70.9071663,15.76651 C70.8967372,16.1039251 70.8863081,16.3970528 70.876187,16.6461583 C70.8657138,16.8952639 70.8606533,17.071883 70.8606533,17.1755297 C70.839839,17.549188 70.793326,17.8605699 70.7211581,18.1096754 L70.7211581,18.1096754 Z M75.541926,15.3850285 C76.4100083,16.4646773 77.520733,17.4662264 78.8745841,18.389897 L77.944587,19.8222979 C77.2831071,19.3447278 76.6759292,18.8492129 76.1231851,18.3353996 C75.570265,17.8216305 75.0664543,17.2793973 74.6118409,16.7084347 C74.1674366,17.2587122 73.6636259,17.7880835 73.1005407,18.2965045 C72.5371915,18.8049255 71.8992541,19.3240869 71.1862007,19.853414 L70.2716053,18.7635553 C70.1267855,18.8776771 69.9407773,18.9632905 69.7136247,19.020484 C69.4861639,19.0773681 69.2226633,19.1216555 68.9230788,19.1528158 L68.0705301,19.2462083 L67.6209773,17.6425804 L68.4115232,17.549188 C68.7731545,17.5078177 69.0211214,17.4222042 69.155556,17.2922592 C69.2897706,17.1626236 69.367263,16.9473303 69.3880773,16.6461583 C69.3982424,16.5631968 69.4086715,16.4203899 69.4190566,16.2180027 C69.4292658,16.0156155 69.4423352,15.782068 69.4578249,15.5174045 C69.4733585,15.2526967 69.4888042,14.9724309 69.5043379,14.6766512 C69.5198276,14.3808274 69.5353613,14.1005615 69.550851,13.835898 C69.5663406,13.5712344 69.57919,13.3376869 69.5895752,13.1352997 C69.5997843,12.9328684 69.6051089,12.7903266 69.6051089,12.7071441 L67.8689882,12.7071441 C67.8275797,13.5583283 67.7604724,14.2952139 67.6674903,14.9179777 C67.5744642,15.5407415 67.4478185,16.1117041 67.2877291,16.6306003 C67.1273756,17.1497175 66.9207732,17.6503594 66.6676577,18.1330124 C66.4143222,18.6156654 66.1120533,19.1423406 65.7608952,19.7133032 L64.4278143,18.7947156 C64.7998307,18.2342281 65.1071601,17.7075529 65.3501105,17.2144248 C65.5927969,16.7215618 65.7918745,16.1817595 65.9469034,15.5952389 C66.1019322,15.0089392 66.2155085,14.3368052 66.2878964,13.5790134 C66.3601083,12.8214427 66.4065773,11.8975512 66.4274356,10.8076924 C66.4376007,10.6208633 66.4480298,10.3950948 66.4584149,10.1304312 C66.4686241,9.86572346 66.4790092,9.59862895 66.4893943,9.3286173 L65.2028705,9.3286173 L65.2028705,7.78722163 L67.9620143,7.78722163 C67.8791533,7.46562976 67.7861712,7.10996046 67.68298,6.72074413 C67.5795688,6.33148361 67.4865427,6.02279784 67.4039457,5.79437745 L68.8300526,5.59199026 C68.8711971,5.71649882 68.9203945,5.86712899 68.9772926,6.04348297 C69.0339708,6.22010214 69.0935533,6.40693129 69.155556,6.6039704 C69.2175588,6.8012747 69.2742369,7.00366189 69.3260745,7.21117616 C69.3776481,7.41891142 69.4292658,7.61086765 69.4811034,7.78722163 L71.8372514,7.78722163 L71.8372514,9.3286173 L67.977504,9.3286173 C67.977504,9.49476131 67.9748197,9.66333627 67.9697592,9.83460737 C67.9644346,10.0058785 67.959374,10.1693263 67.9542255,10.3250394 C67.9489009,10.4807082 67.9438403,10.6208633 67.9387798,10.745416 C67.9334552,10.8699688 67.930991,10.9687093 67.930991,11.0412399 L67.930991,11.1657484 L70.8916327,11.1657484 C71.1188293,10.8025653 71.3540349,10.3899677 71.5969853,9.92804404 C71.8396277,9.46629716 72.0644041,8.98364416 72.2712266,8.48008504 C72.477829,7.97674691 72.6638812,7.4680607 72.8292952,6.95429161 C72.9944451,6.44047832 73.1237752,5.9500905 73.2168013,5.48299554 L74.7668697,5.73210107 C74.6738436,6.09554938 74.5731167,6.45873251 74.4646449,6.82195983 C74.3561291,7.18540814 74.2398245,7.54346418 74.115863,7.89621635 L78.533591,7.89621635 L78.533591,9.48428615 L77.3245156,9.48428615 C77.1796959,10.6884877 76.9704092,11.7678713 76.6967434,12.7227021 C76.4228137,13.677754 76.0379919,14.5652256 75.541926,15.3850285 L75.541926,15.3850285 Z" id="Fill-3" fill="#1D1E22"></path>
                        <path d="M91.3527031,15.1047892 C91.5798558,15.2814084 91.8254465,15.4837955 92.0889471,15.7119949 C92.3525358,15.9404153 92.6184567,16.1790899 92.8872819,16.4281954 C93.1558871,16.6773009 93.4167034,16.9317545 93.670083,17.19107 C93.9231544,17.4506507 94.15836,17.6997562 94.3753476,17.9383866 L93.4298168,19.1527981 C93.2229944,18.9243777 92.9854126,18.6674932 92.7167634,18.3821445 C92.4479382,18.0965306 92.1715441,17.8114029 91.8874493,17.5258332 C91.6031344,17.2404845 91.3267843,16.9706939 91.0581791,16.7161961 C90.7893099,16.4620077 90.5517281,16.2467144 90.3451697,16.0700952 L91.3527031,15.1047892 Z M86.1599189,13.3454483 L91.6471831,13.3454483 L91.6471831,12.3801865 L86.1599189,12.3801865 L86.1599189,13.3454483 Z M86.1599189,11.0567802 L91.6471831,11.0567802 L91.6471831,10.0759162 L86.1599189,10.0759162 L86.1599189,11.0567802 Z M87.0124675,15.883266 C86.8366244,16.1428467 86.630022,16.4230683 86.3923962,16.7240193 C86.1545943,17.0251912 85.9041631,17.331225 85.6406185,17.6426069 C85.3771178,17.9539888 85.1058284,18.2575917 84.826838,18.5533714 C84.5478037,18.8491952 84.2789785,19.1268091 84.0208025,19.3863456 L83.013225,18.1875363 C83.5402703,17.6997562 84.0490975,17.175512 84.5401029,16.6150246 C85.0307562,16.0545371 85.4570745,15.5200829 85.8188818,15.0113967 L87.0124675,15.883266 Z M89.7250983,14.6065781 L89.7250983,17.7982758 C89.7250983,18.140818 89.6964952,18.4183877 89.639861,18.63125 C89.5829188,18.8438472 89.4821479,19.0151183 89.3375922,19.1450191 C89.1927284,19.2746989 89.0016597,19.3707876 88.7640779,19.4330639 C88.526232,19.4953403 88.2215429,19.5420587 87.8495265,19.5731747 L86.8264593,19.6665672 L86.3923962,18.156376 L87.2449448,18.0629836 C87.4515913,18.0422542 87.6143209,18.0162652 87.7332219,17.9851491 C87.8519028,17.9539888 87.9425086,17.9072705 88.0045113,17.8449941 C88.0665141,17.7827178 88.1077025,17.6997562 88.1285608,17.5958886 C88.149111,17.492242 88.1595402,17.3623411 88.1595402,17.2066723 L88.1595402,14.6065781 L84.7028326,14.6065781 L84.7028326,8.78367024 L87.5239791,8.78367024 C87.596147,8.58663113 87.6659385,8.39202297 87.7332219,8.19980155 C87.8003732,8.00788952 87.8596476,7.81328136 87.9115292,7.61597705 L83.5558039,7.61597705 L83.5558039,11.4148805 C83.5558039,12.463369 83.519412,13.3843876 83.4472881,14.1784225 C83.3748123,14.9724574 83.2585956,15.6964369 83.0985062,16.350361 C82.9381528,17.0042409 82.7342347,17.6114467 82.4862237,18.1719341 C82.2381688,18.7324215 81.9383642,19.3085112 81.587162,19.9001589 L80.2076121,18.8258582 C80.5486052,18.2342105 80.8327,17.6970601 81.0601608,17.2144071 C81.2873134,16.7317983 81.4709014,16.2206812 81.6104406,15.6808789 C81.7498917,15.1412975 81.8506627,14.5392189 81.9127094,13.8748196 C81.9746681,13.2106855 82.0056915,12.4062197 82.0056915,11.4615988 L82.0056915,6.16801805 L94.0653779,6.16801805 L94.0653779,7.61597705 L88.562536,7.61597705 L89.5081107,7.80280619 C89.4667022,7.94826508 89.4201892,8.10397813 89.3685716,8.26990115 C89.3167779,8.43604516 89.2652043,8.60731626 89.2135867,8.78367024 L93.0732901,8.78367024 L93.0732901,14.6065781 L89.7250983,14.6065781 Z" id="Fill-5" fill="#1D1E22"></path>
                        <path d="M109.659119,13.4233269 L103.768815,13.4233269 L103.768815,17.4246175 C103.768815,17.808751 103.740212,18.1225638 103.683534,18.3665422 C103.626592,18.6102997 103.52076,18.8049521 103.365731,18.9504109 C103.210746,19.0956488 102.996179,19.2046435 102.722469,19.2773509 C102.44854,19.3498372 102.094697,19.4070307 101.660634,19.448622 L100.312107,19.5731747 L99.7850622,17.9695469 L101.149122,17.8761544 C101.376319,17.8659003 101.557267,17.8425632 101.691657,17.8060548 C101.825828,17.7698116 101.929283,17.7153143 102.001671,17.6425627 C102.073839,17.5700764 102.120396,17.4713358 102.141166,17.3467831 C102.16176,17.2222303 102.17219,17.0614344 102.17219,16.8641301 L102.17219,13.4233269 L96.2353285,13.4233269 L96.2353285,11.8975335 L102.17219,11.8975335 L102.17219,10.5741272 L106.155942,7.91180091 L97.5219403,7.91180091 L97.5219403,6.38600748 L108.83755,6.38600748 L108.83755,7.942917 L103.768815,11.2903277 L103.768815,11.8975335 L109.659119,11.8975335 L109.659119,13.4233269 Z" id="Fill-7" fill="#1D1E22"></path>
                        <path d="M120.494095,11.9442341 L120.494095,8.0052199 L116.727374,8.0052199 L116.727374,11.6639683 L116.727374,11.9442341 L120.494095,11.9442341 Z M125.361376,13.4700276 L122.059697,13.4700276 L122.059697,19.5264829 L120.494095,19.5264829 L120.494095,13.4700276 L116.680905,13.4700276 C116.629067,14.2173441 116.536085,14.8739202 116.401871,15.4395347 C116.267436,16.0053702 116.068622,16.5347415 115.805078,17.0276045 C115.541577,17.5207326 115.205645,18.0006895 114.797544,18.4677403 C114.389224,18.9348352 113.885413,19.4330463 113.2862,19.9624176 L112.108148,18.7791664 C112.645358,18.3222814 113.097552,17.8994738 113.464463,17.5102575 C113.831155,17.1210412 114.128364,16.7240016 114.35578,16.319183 C114.582977,15.9144087 114.753451,15.486253 114.867292,15.0347161 C114.980912,14.5832234 115.058405,14.0616753 115.099813,13.4700276 L111.627616,13.4700276 L111.627616,11.9442341 L115.146326,11.9442341 L115.146326,11.8196814 L115.146326,8.0052199 L112.418162,8.0052199 L112.418162,6.47942647 L124.555341,6.47942647 L124.555341,8.0052199 L122.059697,8.0052199 L122.059697,11.9442341 L125.361376,11.9442341 L125.361376,13.4700276 Z" id="Fill-9" fill="#1D1E22"></path>
                        <path d="M139.296599,15.4161888 C139.441199,15.5928079 139.611673,15.8054051 139.808111,16.0545106 C140.004328,16.3036603 140.203362,16.5683239 140.404948,16.8485455 C140.606445,17.1288113 140.797514,17.406602 140.978462,17.6815197 C141.159101,17.9566585 141.31171,18.2030679 141.435716,18.4210573 L140.350646,19.3240869 C140.22664,19.1060975 140.071611,18.8492129 139.885647,18.5533891 C139.699595,18.2575652 139.508306,17.9593546 139.312133,17.6581827 C139.115695,17.3572317 138.921898,17.074314 138.73083,16.8096504 C138.539497,16.5449426 138.371619,16.3245665 138.227019,16.1479473 L139.296599,15.4161888 Z M135.002877,13.6257318 L138.599079,13.6257318 L138.599079,12.5825913 L135.002877,12.5825913 L135.002877,13.6257318 Z M135.002877,11.3681798 L138.599079,11.3681798 L138.599079,10.2783211 L135.002877,10.2783211 L135.002877,11.3681798 Z M135.204374,16.0856709 C135.059555,16.3556826 134.896781,16.6383793 134.716097,16.9342032 C134.535194,17.230027 134.346501,17.5233757 134.150328,17.8138515 C133.953891,18.1043273 133.755033,18.3872451 133.553535,18.6623838 C133.351993,18.9373015 133.158284,19.189059 132.972232,19.4174794 L131.918185,18.54561 C132.321181,18.0578742 132.713792,17.5440609 133.096281,17.0042586 C133.478419,16.4646773 133.798862,15.9300021 134.057302,15.4005865 L135.204374,16.0856709 Z M137.560522,14.8868174 L137.560522,17.7827354 C137.560522,18.1252334 137.531919,18.4028031 137.475241,18.6156654 C137.418299,18.8283068 137.320256,19.0022298 137.180717,19.1372578 C137.041222,19.2720205 136.860318,19.3681091 136.638182,19.4253026 C136.41587,19.4821867 136.144581,19.5264741 135.824402,19.5576344 L135.064879,19.6198666 L134.615326,18.1875098 L135.32838,18.1252334 C135.503959,18.1148025 135.643454,18.0940731 135.746909,18.062957 C135.850101,18.031841 135.927549,17.9851226 135.979387,17.9228462 C136.031004,17.8605699 136.064668,17.7698293 136.080158,17.6503594 C136.095691,17.531199 136.103436,17.3779169 136.103436,17.1910877 L136.103436,14.8868174 L133.56128,14.8868174 L133.56128,9.03279344 L135.653927,9.03279344 C135.726051,8.80459404 135.793422,8.58125653 135.855425,8.3633113 C135.917428,8.14532187 135.974062,7.92224955 136.025944,7.69382916 L132.739711,7.69382916 L132.739711,11.4460142 C132.739711,12.4113202 132.711152,13.2652006 132.654517,14.0071691 C132.597575,14.7494028 132.501909,15.442222 132.367694,16.0856709 C132.23326,16.7293408 132.05504,17.3494527 131.832948,17.9461833 C131.610592,18.5429139 131.334242,19.1683739 131.003634,19.8222979 L129.60855,19.1683739 C129.949587,18.514494 130.228622,17.907244 130.445609,17.3467566 C130.662597,16.7862691 130.833115,16.2128756 130.957121,15.626355 C131.08117,15.0400995 131.166408,14.4172915 131.212921,13.7580636 C131.25939,13.0990566 131.282668,12.3439168 131.282668,11.4927326 L131.282668,6.24587016 L140.877691,6.24587016 L140.877691,7.69382916 L136.862959,7.69382916 L137.49852,7.80282387 C137.446682,7.97944305 137.392424,8.17648216 137.335702,8.39442739 C137.278804,8.61241682 137.214161,8.82527917 137.141949,9.03279344 L140.040632,9.03279344 L140.040632,14.8868174 L137.560522,14.8868174 Z M130.290625,9.12618591 C130.145761,8.97051706 129.970182,8.79146694 129.763535,8.58907975 C129.556713,8.38664837 129.337305,8.18426118 129.104784,7.98187399 C128.872262,7.77944261 128.642161,7.58483444 128.415009,7.3980053 C128.187592,7.21117616 127.98605,7.05038022 127.810427,6.9153523 L128.647486,5.80993549 C128.823109,5.92427829 129.021967,6.06443329 129.244279,6.23031211 C129.466371,6.39645612 129.691147,6.57042336 129.918564,6.75190442 C130.145761,6.93360648 130.365433,7.11530854 130.57736,7.29678961 C130.789067,7.47853586 130.972655,7.64198374 131.127639,7.78726583 L130.290625,9.12618591 Z M130.321604,13.7814006 C130.300746,13.8852683 130.256917,14.0876996 130.189854,14.3886064 C130.122526,14.6897783 130.039929,15.0374034 129.941843,15.4317468 C129.843492,15.8263554 129.740301,16.246732 129.631785,16.6928767 C129.523269,17.1392423 129.419902,17.556967 129.321771,17.9461833 C129.223465,18.3353996 129.135807,18.6725938 129.058271,18.9582076 C128.980778,19.2435563 128.931625,19.4276893 128.910987,19.510916 L127.484924,19.1216555 C127.526112,19.0073569 127.585695,18.8076217 127.663187,18.5222288 C127.740723,18.2366591 127.831021,17.9048572 127.934477,17.5258067 C128.037668,17.1470655 128.141035,16.7448989 128.24449,16.3192184 C128.347681,15.8937147 128.445988,15.4889403 128.53897,15.1048069 C128.631996,14.7209386 128.711953,14.3783964 128.779236,14.0772245 C128.846388,13.7762735 128.890216,13.5583283 128.910987,13.4233446 L130.321604,13.7814006 Z M129.810092,12.6137074 C129.634249,12.4268783 129.435392,12.2298392 129.213255,12.0220597 C128.990943,11.8145896 128.763791,11.6070754 128.531225,11.3992959 C128.298704,11.1917816 128.068647,10.9945215 127.841494,10.8076924 C127.614034,10.6208633 127.412536,10.4651502 127.236913,10.3405974 L127.996479,9.20406454 C128.182487,9.3286173 128.39415,9.47650713 128.631996,9.64777823 C128.869622,9.81904932 129.109888,10.0034475 129.352795,10.2004866 C129.595481,10.3977467 129.828002,10.5923991 130.050358,10.7843111 C130.272451,10.9764883 130.471264,11.1555827 130.647107,11.3214615 L129.810092,12.6137074 Z" id="Fill-11" fill="#1D1E22"></path>
                        <mask id="mask-3" fill="white">
                            <use xlink:href="#path-2"></use>
                        </mask>
                        <g id="Clip-14"></g>
                        <path d="M147.062396,12.6292876 L152.36374,12.6292876 L152.36374,11.7574182 L147.062396,11.7574182 L147.062396,12.6292876 Z M147.062396,10.6831175 L152.36374,10.6831175 L152.36374,9.85796654 L147.062396,9.85796654 L147.062396,10.6831175 Z M147.062396,8.73694748 L152.36374,8.73694748 L152.36374,8.02074701 L147.062396,8.02074701 L147.062396,8.73694748 Z M148.953545,15.6497141 L148.953545,14.3730262 L150.47259,14.4353468 L150.47259,15.6497141 L152.983767,15.6497141 C152.673753,15.3799235 152.379229,15.0945748 152.100195,14.7934029 C151.821205,14.4924961 151.557704,14.1604291 151.309649,13.7969808 L148.085463,13.7969808 C147.682467,14.4406949 147.129547,15.0580664 146.426879,15.6497141 L148.953545,15.6497141 Z M150.47259,16.8641257 L150.47259,18.1719297 L155.758445,18.1719297 L155.758445,19.3863412 L143.621222,19.3863412 L143.621222,18.1719297 L148.953545,18.1719297 L148.953545,16.8641257 L146.163378,16.8641257 L146.163378,15.8677036 C145.336528,16.5425338 144.370359,17.1497396 143.264739,17.6893209 L142.629178,16.2880802 C143.435258,15.935328 144.153372,15.5511946 144.783784,15.1359451 C145.413977,14.7209165 145.946346,14.2745067 146.380366,13.7969808 L143.032174,13.7969808 L143.032174,12.6292876 L145.57433,12.6292876 L145.57433,8.02079121 L143.52824,8.02079121 L143.52824,6.83749577 L145.57433,6.83749577 L145.57433,5.70096288 L147.062396,5.76323926 L147.062396,6.83749577 L152.36374,6.83749577 L152.36374,5.70096288 L153.836316,5.76323926 L153.836316,6.83749577 L155.882406,6.83749577 L155.882406,8.02079121 L153.836316,8.02079121 L153.836316,12.6292876 L156.393962,12.6292876 L156.393962,13.7969808 L153.014747,13.7969808 C153.500383,14.3367831 154.047979,14.7856238 154.657841,15.1437241 C155.267439,15.5018243 155.970108,15.8470184 156.765978,16.1790855 L156.130461,17.5647239 C155.551534,17.2949332 155.022113,17.0174078 154.54158,16.7317939 C154.061048,16.4464452 153.608899,16.1377152 153.185265,15.8054272 L153.185265,16.8641257 L150.47259,16.8641257 Z" id="Fill-13" fill="#1D1E22" mask="url(#mask-3)"></path>
                        <path d="M165.353362,6.99321324 C164.970916,7.52258458 164.503233,8.03900561 163.950489,8.54234374 C163.397569,9.04590286 162.769797,9.53098681 162.067129,9.99808176 L168.701553,9.99808176 C168.019479,9.55193713 167.389067,9.07706315 166.810404,8.57345983 C166.231565,8.0701659 165.745972,7.5434907 165.353362,6.99321324 L165.353362,6.99321324 Z M166.097394,17.7827178 L171.739688,17.7827178 L171.739688,19.2150745 L158.920479,19.2150745 L158.920479,17.7827178 L164.562772,17.7827178 L164.562772,14.435307 L161.540127,14.435307 C161.664133,14.570335 161.811417,14.7287 161.981935,14.910181 C162.15241,15.0918831 162.325305,15.2838393 162.501192,15.4862265 C162.676771,15.6886579 162.847289,15.8910451 163.012747,16.0934323 C163.177853,16.2958636 163.317392,16.4853447 163.431233,16.6617429 L162.439145,17.7827178 C162.315183,17.5958886 162.162575,17.3883743 161.981935,17.1599097 C161.800944,16.9317545 161.61762,16.700638 161.431611,16.4670905 C161.245603,16.2335431 161.062015,16.0131669 160.881332,15.8053874 C160.700428,15.5979173 160.542759,15.4266462 160.408588,15.2916183 L161.338629,14.435307 L159.742004,14.435307 L159.742004,12.9873922 L164.562772,12.9873922 L164.562772,11.4148805 L161.447101,11.4148805 L161.447101,10.4029003 C160.703068,10.8597411 159.886648,11.2956758 158.997971,11.7107043 L158.34692,10.2316292 C159.824601,9.59861127 161.085294,8.89801303 162.129131,8.12974614 C163.172793,7.36174445 164.03577,6.48987512 164.717845,5.51413815 L166.019858,5.51413815 C166.701932,6.46918999 167.56997,7.32793222 168.624017,8.09080683 C169.678064,8.85372564 170.907733,9.52077684 172.313202,10.0914742 L171.708708,11.6017096 C171.274689,11.4253556 170.850835,11.2280513 170.43763,11.0100619 C170.024205,10.7921167 169.616061,10.5639173 169.213065,10.3250217 L169.213065,11.4148805 L166.097394,11.4148805 L166.097394,12.9873922 L170.918162,12.9873922 L170.918162,14.435307 L169.35256,14.435307 L170.220598,15.1359495 C170.075779,15.3436847 169.923434,15.5616742 169.763345,15.7898294 C169.602991,16.0182498 169.435157,16.2467144 169.259578,16.4748696 C169.083691,16.7033342 168.905472,16.9264065 168.724788,17.1443517 C168.54384,17.3623411 168.365577,17.5596454 168.189998,17.7359994 L167.073949,16.7862515 C167.208119,16.6305826 167.358043,16.4542286 167.523457,16.2569243 C167.688607,16.0598852 167.85675,15.8598848 168.027268,15.6574976 C168.197743,15.4551104 168.360516,15.2475961 168.515501,15.0347338 C168.67053,14.8220924 168.810025,14.6221362 168.934031,14.435307 L166.097394,14.435307 L166.097394,17.7827178 Z" id="Fill-15" fill="#1D1E22" mask="url(#mask-3)"></path>
                        <path d="M184.450319,10.2316116 C183.72688,9.70224023 183.060296,9.1549241 182.450698,8.5890444 C181.840836,8.02347409 181.339709,7.45516344 180.947142,6.88424505 C180.554268,7.4656386 180.060886,8.03633599 179.466778,8.59682342 C178.872405,9.15731084 178.208549,9.70224023 177.474901,10.2316116 L184.450319,10.2316116 Z M174.576218,13.2987565 L187.271422,13.2987565 L187.271422,14.7311132 L180.621595,14.7311132 C180.20817,15.3020758 179.779212,15.8443532 179.335027,16.3581223 C178.890579,16.8718914 178.487539,17.2742791 178.125952,17.5647548 L183.489255,17.3467654 C183.251409,17.0563338 183.021528,16.786278 182.799436,16.5371725 C182.577124,16.2880669 182.383326,16.0805527 182.218177,15.9144087 L183.427252,14.9491026 C183.644284,15.177523 183.88961,15.4448828 184.163496,15.7509166 C184.437206,16.0572156 184.718924,16.3790285 185.008344,16.7162226 C185.297543,17.0536377 185.584322,17.3961799 185.868593,17.743805 C186.152732,18.09143 186.413592,18.4210661 186.651438,18.732448 L185.535345,19.9313015 C185.421505,19.7755885 185.295079,19.5989693 185.155584,19.4019302 C185.016045,19.2046259 184.858375,18.9971116 184.682796,18.7791664 C184.393377,18.7893763 184.02136,18.8025034 183.566747,18.8180615 C183.111914,18.8336637 182.613472,18.8543047 182.070937,18.8803379 C181.528402,18.9061501 180.962588,18.9348352 180.37354,18.9659955 C179.784536,18.9971116 179.208338,19.0282277 178.645208,19.059388 C178.081859,19.0905483 177.547069,19.1267914 177.040882,19.1683827 C176.534431,19.2097088 176.100412,19.2462171 175.738825,19.2773774 L175.428767,17.8138604 C175.666393,17.7102137 175.831807,17.6219041 175.924833,17.5491968 C176.017815,17.4766662 176.105516,17.4039147 176.188333,17.3312074 C176.374386,17.1754943 176.573199,16.9991403 176.785126,16.801836 C176.996789,16.6047969 177.20876,16.3919346 177.420643,16.1635142 C177.63235,15.9353148 177.844277,15.6991154 178.05616,15.4550927 C178.267867,15.2113795 178.466945,14.970053 178.652997,14.7311132 L174.576218,14.7311132 L174.576218,13.2987565 Z M181.613639,5.35845162 C182.274811,6.33418858 183.153278,7.25547239 184.248777,8.12199364 C185.344056,8.98873589 186.59454,9.76990888 188.000009,10.465159 L187.317979,11.9909525 C186.522064,11.5759239 185.752377,11.1190831 185.008344,10.6208721 L185.008344,11.6328522 L176.870363,11.6328522 L176.870363,10.6519882 C176.126331,11.1295141 175.34595,11.591482 174.529749,12.0376266 L173.847719,10.5274354 C175.263397,9.83214107 176.521582,9.04592938 177.622185,8.16866778 C178.722745,7.29167136 179.614062,6.35487371 180.296092,5.35845162 L181.613639,5.35845162 Z" id="Fill-16" fill="#1D1E22" mask="url(#mask-3)"></path>
                        <path d="M52.8226533,30.4655789 C53.224989,30.4655789 53.5533087,30.4140871 53.8077883,30.3111476 C54.062048,30.2082082 54.2613456,30.0462631 54.4056813,29.8250029 C54.549797,29.6038754 54.6485437,29.314151 54.7017455,28.9556087 C54.7547712,28.5972433 54.7814821,28.1588335 54.7814821,27.6401583 C54.7814821,27.1368202 54.7547712,26.7041121 54.7017455,26.3418129 C54.6485437,25.9796906 54.549797,25.6840877 54.4056813,25.4553137 C54.2613456,25.2265397 54.062048,25.0588487 53.8077883,24.9519756 C53.5533087,24.8452792 53.224989,24.7918426 52.8226533,24.7918426 C52.4201416,24.7918426 52.0898417,24.8452792 51.8317976,24.9519756 C51.5736216,25.0588487 51.3723437,25.2265397 51.228228,25.4553137 C51.0838924,25.6840877 50.9851456,25.9796906 50.9321199,26.3418129 C50.8788741,26.7041121 50.8523832,27.1368202 50.8523832,27.6401583 C50.8523832,28.1588335 50.8788741,28.5972433 50.9321199,28.9556087 C50.9851456,29.314151 51.0838924,29.6038754 51.228228,29.8250029 C51.3723437,30.0462631 51.5736216,30.2082082 51.8317976,30.3111476 C52.0898417,30.4140871 52.4201416,30.4655789 52.8226533,30.4655789 M52.8226533,31.7238359 C52.2532314,31.7238359 51.7481885,31.6627086 51.3079207,31.540852 C50.8674768,31.4189512 50.4993328,31.2033927 50.2032247,30.8945302 C49.9071165,30.5856676 49.6811079,30.1681639 49.525595,29.6419749 C49.3699061,29.1157417 49.2921497,28.4485579 49.2921497,27.6401583 C49.2921497,26.8394052 49.3699061,26.1759341 49.525595,25.6497451 C49.6811079,25.1235561 49.9071165,24.7060524 50.2032247,24.3971898 C50.4993328,24.0883273 50.8674768,23.8710008 51.3079207,23.7451663 C51.7481885,23.6193318 52.2532314,23.5564366 52.8226533,23.5564366 C53.3920312,23.5564366 53.8949618,23.6193318 54.3316213,23.7451663 C54.7681487,23.8710008 55.1362927,24.0883273 55.4363613,24.3971898 C55.7361659,24.7060524 55.9619984,25.1235561 56.1139909,25.6497451 C56.2657634,26.1759341 56.3417597,26.8394052 56.3417597,27.6401583 C56.3417597,28.4485579 56.2657634,29.1157417 56.1139909,29.6419749 C55.9619984,30.1681639 55.7361659,30.5856676 55.4363613,30.8945302 C55.1362927,31.2033927 54.7681487,31.4189512 54.3316213,31.540852 C53.8949618,31.6627086 53.3920312,31.7238359 52.8226533,31.7238359" id="Fill-17" fill="#1D1E22" mask="url(#mask-3)"></path>
                        <path d="M60.3504369,27.8231554 C60.6693395,27.8231554 60.9369326,27.8002603 61.1533481,27.7545144 C61.3697196,27.7087684 61.5442866,27.628724 61.677225,27.514337 C61.8099874,27.3999059 61.9049938,27.2474635 61.961936,27.0567449 C62.0188781,26.8662472 62.0473932,26.6260257 62.0473932,26.3360803 C62.0473932,25.7946868 61.9220676,25.4172274 61.6715044,25.2036137 C61.4209852,24.990221 60.9805413,24.8833478 60.3504369,24.8833478 L59.496304,24.8833478 L59.496304,27.8231554 L60.3504369,27.8231554 Z M58.0043659,23.6708368 L60.5326607,23.6708368 C61.1095633,23.6708368 61.5935719,23.7205165 61.9847304,23.8195223 C62.3756689,23.918749 62.6888949,24.075125 62.9242765,24.2885178 C63.1595261,24.5020873 63.3266562,24.7766514 63.425403,25.1121218 C63.5239737,25.4477689 63.5734351,25.8481676 63.5734351,26.3132294 C63.5734351,26.8165234 63.5164929,27.2397729 63.4026085,27.5829339 C63.2887241,27.9261391 63.1083045,28.2063607 62.8616137,28.4236871 C62.6148349,28.6410578 62.2996727,28.7974338 61.916391,28.8927268 C61.5328893,28.9881525 61.0716752,29.0357106 60.5326607,29.0357106 L59.496304,29.0357106 L59.496304,31.6094621 L58.0043659,31.6094621 L58.0043659,23.6708368 Z" id="Fill-18" fill="#1D1E22" mask="url(#mask-3)"></path>
                        <polygon id="Fill-19" fill="#1D1E22" mask="url(#mask-3)" points="69.9623441 30.2939852 69.9623441 31.6094798 65.0765812 31.6094798 65.0765812 23.6708103 69.7573698 23.6708103 69.7573698 24.9748574 66.5685193 24.9748574 66.5685193 26.8966296 69.5295571 26.8966296 69.5295571 28.143439 66.5685193 28.143439 66.5685193 30.2939852"></polygon>
                        <polygon id="Fill-20" fill="#1D1E22" mask="url(#mask-3)" points="71.4542074 23.670828 73.7433801 23.670828 76.613284 29.6533827 76.6816234 29.6533827 76.6816234 23.670828 78.1394138 23.670828 78.1394138 31.6094533 76.1122455 31.6094533 72.9916904 25.249395 72.923395 25.249395 72.923395 31.6094533 71.4542074 31.6094533"></polygon>
                        <path d="M84.2892096,28.2464138 L83.1617191,25.0091912 L83.0250403,25.0091912 L81.8747993,28.2464138 L84.2892096,28.2464138 Z M84.7333939,29.5047149 L81.430659,29.5047149 L80.6789693,31.609471 L79.1415303,31.609471 L82.102612,23.6708457 L84.1069858,23.6708457 L87.0452731,31.609471 L85.4622451,31.609471 L84.7333939,29.5047149 Z" id="Fill-21" fill="#1D1E22" mask="url(#mask-3)"></path>
                        <polygon id="Fill-22" fill="#1D1E22" mask="url(#mask-3)" points="93.0925246 24.9863049 90.9400747 24.9863049 90.9400747 31.6094798 89.4481806 31.6094798 89.4481806 24.9863049 87.3070399 24.9863049 87.3070399 23.6708103 93.0925246 23.6708103"></polygon>
                        <path d="M97.5341252,30.4655789 C97.9364609,30.4655789 98.2647806,30.4140871 98.5192603,30.3111476 C98.7735199,30.2082082 98.9728175,30.0462631 99.1171532,29.8250029 C99.2612689,29.6038754 99.3600156,29.314151 99.4132174,28.9556087 C99.4662432,28.5972433 99.4929541,28.1588335 99.4929541,27.6401583 C99.4929541,27.1368202 99.4662432,26.7041121 99.4132174,26.3418129 C99.3600156,25.9796906 99.2612689,25.6840877 99.1171532,25.4553137 C98.9728175,25.2265397 98.7735199,25.0588487 98.5192603,24.9519756 C98.2647806,24.8452792 97.9364609,24.7918426 97.5341252,24.7918426 C97.1316135,24.7918426 96.8013136,24.8452792 96.5432696,24.9519756 C96.2850935,25.0588487 96.0838156,25.2265397 95.9397,25.4553137 C95.7953643,25.6840877 95.6966176,25.9796906 95.6435918,26.3418129 C95.590346,26.7041121 95.5638551,27.1368202 95.5638551,27.6401583 C95.5638551,28.1588335 95.590346,28.5972433 95.6435918,28.9556087 C95.6966176,29.314151 95.7953643,29.6038754 95.9397,29.8250029 C96.0838156,30.0462631 96.2850935,30.2082082 96.5432696,30.3111476 C96.8013136,30.4140871 97.1316135,30.4655789 97.5341252,30.4655789 M97.5341252,31.7238359 C96.9647033,31.7238359 96.4596605,31.6627086 96.0193926,31.540852 C95.5789488,31.4189512 95.2108048,31.2033927 94.9146966,30.8945302 C94.6185884,30.5856676 94.3925799,30.1681639 94.237067,29.6419749 C94.081378,29.1157417 94.0036216,28.4485579 94.0036216,27.6401583 C94.0036216,26.8394052 94.081378,26.1759341 94.237067,25.6497451 C94.3925799,25.1235561 94.6185884,24.7060524 94.9146966,24.3971898 C95.2108048,24.0883273 95.5789488,23.8710008 96.0193926,23.7451663 C96.4596605,23.6193318 96.9647033,23.5564366 97.5341252,23.5564366 C98.1035031,23.5564366 98.6064337,23.6193318 99.0430932,23.7451663 C99.4796206,23.8710008 99.8477646,24.0883273 100.147833,24.3971898 C100.447638,24.7060524 100.67347,25.1235561 100.825463,25.6497451 C100.977235,26.1759341 101.053232,26.8394052 101.053232,27.6401583 C101.053232,28.4485579 100.977235,29.1157417 100.825463,29.6419749 C100.67347,30.1681639 100.447638,30.5856676 100.147833,30.8945302 C99.8477646,31.2033927 99.4796206,31.4189512 99.0430932,31.540852 C98.6064337,31.6627086 98.1035031,31.7238359 97.5341252,31.7238359" id="Fill-23" fill="#1D1E22" mask="url(#mask-3)"></path>
                        <polygon id="Fill-24" fill="#1D1E22" mask="url(#mask-3)" points="102.71582 23.670828 105.130231 23.670828 106.679067 28.3607831 106.74745 28.3607831 108.341876 23.670828 110.687947 23.670828 110.687947 31.6094533 109.218759 31.6094533 109.218759 25.135008 109.150463 25.135008 107.453551 30.0079912 105.927421 30.0079912 104.24195 25.135008 104.173611 25.135008 104.173611 31.6094533 102.71582 31.6094533"></polygon>
                        <polygon id="Fill-25" fill="#1D1E22" mask="url(#mask-3)" points="116.974316 24.9748707 116.974316 27.0681792 119.935353 27.0681792 119.935353 28.3722262 116.974316 28.3722262 116.974316 31.6094489 115.482377 31.6094489 115.482377 23.6708236 120.163166 23.6708236 120.163166 24.9748707"></polygon>
                        <path d="M124.889372,30.4655789 C125.291708,30.4655789 125.620027,30.4140871 125.874507,30.3111476 C126.128767,30.2082082 126.328064,30.0462631 126.4724,29.8250029 C126.616516,29.6038754 126.715262,29.314151 126.768464,28.9556087 C126.82149,28.5972433 126.848201,28.1588335 126.848201,27.6401583 C126.848201,27.1368202 126.82149,26.7041121 126.768464,26.3418129 C126.715262,25.9796906 126.616516,25.6840877 126.4724,25.4553137 C126.328064,25.2265397 126.128767,25.0588487 125.874507,24.9519756 C125.620027,24.8452792 125.291708,24.7918426 124.889372,24.7918426 C124.48686,24.7918426 124.15656,24.8452792 123.898516,24.9519756 C123.64034,25.0588487 123.439062,25.2265397 123.294947,25.4553137 C123.150611,25.6840877 123.051864,25.9796906 122.998839,26.3418129 C122.945593,26.7041121 122.919102,27.1368202 122.919102,27.6401583 C122.919102,28.1588335 122.945593,28.5972433 122.998839,28.9556087 C123.051864,29.314151 123.150611,29.6038754 123.294947,29.8250029 C123.439062,30.0462631 123.64034,30.2082082 123.898516,30.3111476 C124.15656,30.4140871 124.48686,30.4655789 124.889372,30.4655789 M124.889372,31.7238359 C124.31995,31.7238359 123.814907,31.6627086 123.374639,31.540852 C122.934196,31.4189512 122.566052,31.2033927 122.269943,30.8945302 C121.973835,30.5856676 121.747827,30.1681639 121.592314,29.6419749 C121.436625,29.1157417 121.358868,28.4485579 121.358868,27.6401583 C121.358868,26.8394052 121.436625,26.1759341 121.592314,25.6497451 C121.747827,25.1235561 121.973835,24.7060524 122.269943,24.3971898 C122.566052,24.0883273 122.934196,23.8710008 123.374639,23.7451663 C123.814907,23.6193318 124.31995,23.5564366 124.889372,23.5564366 C125.45875,23.5564366 125.961681,23.6193318 126.39834,23.7451663 C126.834867,23.8710008 127.203011,24.0883273 127.50308,24.3971898 C127.802885,24.7060524 128.028717,25.1235561 128.18071,25.6497451 C128.332482,26.1759341 128.408478,26.8394052 128.408478,27.6401583 C128.408478,28.4485579 128.332482,29.1157417 128.18071,29.6419749 C128.028717,30.1681639 127.802885,30.5856676 127.50308,30.8945302 C127.203011,31.2033927 126.834867,31.4189512 126.39834,31.540852 C125.961681,31.6627086 125.45875,31.7238359 124.889372,31.7238359" id="Fill-26" fill="#1D1E22" mask="url(#mask-3)"></path>
                        <path d="M133.225699,31.7238491 C132.709303,31.7238491 132.253766,31.6781032 131.859043,31.5866112 C131.464232,31.4950751 131.131952,31.3426328 130.862555,31.1290191 C130.592981,30.9156263 130.387963,30.6353605 130.247544,30.2882658 C130.106993,29.9413479 130.036849,29.5123967 130.036849,29.001368 L130.036849,23.6708368 L131.528787,23.6708368 L131.528787,28.7954891 C131.528787,29.0853902 131.555322,29.3331256 131.608524,29.5390045 C131.661549,29.7449276 131.754576,29.9127512 131.887558,30.0423426 C132.020276,30.1721109 132.195019,30.2693045 132.411435,30.3340118 C132.627806,30.3988959 132.902924,30.4312496 133.237097,30.4312496 C133.57875,30.4312496 133.861525,30.3988959 134.085553,30.3340118 C134.309405,30.2693045 134.485952,30.1681772 134.615106,30.0308951 C134.744172,29.893613 134.833282,29.7220325 134.882744,29.5161536 C134.932029,29.3102305 134.956804,29.070009 134.956804,28.7954891 L134.956804,23.6708368 L136.4373,23.6708368 L136.4373,29.001368 C136.4373,29.9699447 136.162051,30.6657694 135.611639,31.0889748 C135.061051,31.5122243 134.26584,31.7238491 133.225699,31.7238491" id="Fill-27" fill="#1D1E22" mask="url(#mask-3)"></path>
                        <polygon id="Fill-28" fill="#1D1E22" mask="url(#mask-3)" points="138.270738 23.670828 140.55991 23.670828 143.429814 29.6533827 143.498154 29.6533827 143.498154 23.670828 144.955944 23.670828 144.955944 31.6094533 142.928776 31.6094533 139.808221 25.249395 139.739925 25.249395 139.739925 31.6094533 138.270738 31.6094533"></polygon>
                        <path d="M149.317698,30.3168626 C149.697283,30.3168626 150.035196,30.2750503 150.331304,30.191028 C150.627412,30.1072268 150.875995,29.9641988 151.077229,29.7620768 C151.278375,29.5600874 151.430324,29.2873796 151.532811,28.9441745 C151.635298,28.6010135 151.686563,28.1663606 151.686563,27.6401274 C151.686563,27.0910875 151.633362,26.6411859 151.527134,26.2903343 C151.420687,25.9396595 151.265174,25.6631506 151.060199,25.4610286 C150.855181,25.2590392 150.606422,25.1217572 150.31423,25.0492266 C150.021863,24.9768287 149.689626,24.9405413 149.317698,24.9405413 L148.315533,24.9405413 L148.315533,30.3168626 L149.317698,30.3168626 Z M149.386037,23.6708368 C149.96294,23.6708368 150.486817,23.7222845 150.957712,23.8252239 C151.428343,23.9282076 151.830679,24.1246279 152.164895,24.4143523 C152.498892,24.7042535 152.758872,25.1083649 152.945012,25.6269075 C153.130976,26.1455826 153.224046,26.8165234 153.224046,27.6401274 C153.224046,28.4104716 153.130976,29.0491029 152.945012,29.5561979 C152.758872,30.0634256 152.498892,30.4695259 152.164895,30.7744106 C151.830679,31.0795162 151.428343,31.2948979 150.957712,31.4207324 C150.486817,31.546567 149.96294,31.6094621 149.386037,31.6094621 L146.823551,31.6094621 L146.823551,23.6708368 L149.386037,23.6708368 Z" id="Fill-29" fill="#1D1E22" mask="url(#mask-3)"></path>
                        <path d="M159.168842,28.2464138 L158.041351,25.0091912 L157.904672,25.0091912 L156.754431,28.2464138 L159.168842,28.2464138 Z M159.613026,29.5047149 L156.310291,29.5047149 L155.558601,31.609471 L154.021162,31.609471 L156.982244,23.6708457 L158.986618,23.6708457 L161.924905,31.609471 L160.341877,31.609471 L159.613026,29.5047149 Z" id="Fill-30" fill="#1D1E22" mask="url(#mask-3)"></path>
                        <polygon id="Fill-31" fill="#1D1E22" mask="url(#mask-3)" points="167.972161 24.9863049 165.819711 24.9863049 165.819711 31.6094798 164.327817 31.6094798 164.327817 24.9863049 162.186676 24.9863049 162.186676 23.6708103 167.972161 23.6708103"></polygon>
                        <polygon id="Fill-32" fill="#1D1E22" mask="url(#mask-3)" points="169.099594 31.60944 170.591532 31.60944 170.591532 23.6708147 169.099594 23.6708147"></polygon>
                        <path d="M175.773425,30.4655789 C176.175761,30.4655789 176.504081,30.4140871 176.758561,30.3111476 C177.01282,30.2082082 177.212118,30.0462631 177.356453,29.8250029 C177.500569,29.6038754 177.599316,29.314151 177.652518,28.9556087 C177.705543,28.5972433 177.732254,28.1588335 177.732254,27.6401583 C177.732254,27.1368202 177.705543,26.7041121 177.652518,26.3418129 C177.599316,25.9796906 177.500569,25.6840877 177.356453,25.4553137 C177.212118,25.2265397 177.01282,25.0588487 176.758561,24.9519756 C176.504081,24.8452792 176.175761,24.7918426 175.773425,24.7918426 C175.370914,24.7918426 175.040614,24.8452792 174.78257,24.9519756 C174.524394,25.0588487 174.323116,25.2265397 174.179,25.4553137 C174.034665,25.6840877 173.935918,25.9796906 173.882892,26.3418129 C173.829646,26.7041121 173.803155,27.1368202 173.803155,27.6401583 C173.803155,28.1588335 173.829646,28.5972433 173.882892,28.9556087 C173.935918,29.314151 174.034665,29.6038754 174.179,29.8250029 C174.323116,30.0462631 174.524394,30.2082082 174.78257,30.3111476 C175.040614,30.4140871 175.370914,30.4655789 175.773425,30.4655789 M175.773425,31.7238359 C175.204004,31.7238359 174.698961,31.6627086 174.258693,31.540852 C173.818249,31.4189512 173.450105,31.2033927 173.153997,30.8945302 C172.857889,30.5856676 172.63188,30.1681639 172.476367,29.6419749 C172.320678,29.1157417 172.242922,28.4485579 172.242922,27.6401583 C172.242922,26.8394052 172.320678,26.1759341 172.476367,25.6497451 C172.63188,25.1235561 172.857889,24.7060524 173.153997,24.3971898 C173.450105,24.0883273 173.818249,23.8710008 174.258693,23.7451663 C174.698961,23.6193318 175.204004,23.5564366 175.773425,23.5564366 C176.342803,23.5564366 176.845734,23.6193318 177.282393,23.7451663 C177.718921,23.8710008 178.087065,24.0883273 178.387133,24.3971898 C178.686938,24.7060524 178.912771,25.1235561 179.064763,25.6497451 C179.216536,26.1759341 179.292532,26.8394052 179.292532,27.6401583 C179.292532,28.4485579 179.216536,29.1157417 179.064763,29.6419749 C178.912771,30.1681639 178.686938,30.5856676 178.387133,30.8945302 C178.087065,31.2033927 177.718921,31.4189512 177.282393,31.540852 C176.845734,31.6627086 176.342803,31.7238359 175.773425,31.7238359" id="Fill-33" fill="#1D1E22" mask="url(#mask-3)"></path>
                        <polygon id="Fill-34" fill="#1D1E22" mask="url(#mask-3)" points="180.955116 23.670828 183.244289 23.670828 186.114193 29.6533827 186.182532 29.6533827 186.182532 23.670828 187.640323 23.670828 187.640323 31.6094533 185.613154 31.6094533 182.492599 25.249395 182.424304 25.249395 182.424304 31.6094533 180.955116 31.6094533"></polygon>
                        <path d="M19.912124,-2.20994963e-05 C30.909227,-2.20994963e-05 39.8241557,8.95425183 39.8241557,19.9999779 C39.8241557,31.0455714 30.909227,39.9999779 19.912124,39.9999779 C8.91493309,39.9999779 4.40047886e-06,31.0455714 4.40047886e-06,19.9999779 C4.40047886e-06,8.95425183 8.91493309,-2.20994963e-05 19.912124,-2.20994963e-05 L19.912124,-2.20994963e-05 Z M19.8976025,2.92908935 L18.1742432,3.01647075 C9.60365193,3.89077103 2.9154972,11.1608865 2.9154972,19.9999779 C2.9154972,22.946327 3.65864995,25.718311 4.9668681,28.1372777 L5.21452701,28.5466045 L18.8025875,4.90752466 L18.8066359,4.90982301 L19.8976025,2.92908935 Z M19.9315302,2.92931034 L21.0213526,4.90778985 L21.0216606,4.90752466 L34.6097211,28.5466045 L34.857292,28.1372777 C36.1655101,25.718311 36.9086629,22.946327 36.9086629,19.9999779 C36.9086629,11.1608865 30.2205081,3.89077103 21.6499169,3.01647075 L19.9315302,2.92931034 Z M19.912124,8.96097008 L14.426576,18.504063 L25.3975841,18.504063 L19.912124,8.96097008 Z M12.7068251,21.4958928 L7.11958201,31.2160027 L7.89367012,32.0713416 C10.5849586,34.7745078 14.1746486,36.5754399 18.1742432,36.9833966 L18.4226942,36.9959934 L18.4226942,21.4958928 L12.7068251,21.4958928 Z M21.4014659,21.4958928 L21.4014659,36.9959934 L21.6499169,36.9833966 C25.6494675,36.5754399 29.2392015,34.7745078 31.93049,32.0713416 L32.7046221,31.2159143 L27.117335,21.4958928 L21.4014659,21.4958928 Z" id="Fill-35" fill="#2F5F8C" mask="url(#mask-3)"></path>
                    </g>
                </g>
            </g>
        </g>
    </g>
</svg>