<svg version="1.1" xmlns="http://www.w3.org/2000/svg" width="32" height="32" viewBox="0 0 32 32">
<title>copy</title>
<path fill="#fff" d="M22.667 22.667v-18.667c0-1.473-1.194-2.667-2.667-2.667h-7.68c-1.060 0.001-2.077 0.423-2.827 1.173l-5.653 5.653c-0.75 0.749-1.172 1.766-1.173 2.827v11.68c0 1.473 1.194 2.667 2.667 2.667h14.667c1.473 0 2.667-1.194 2.667-2.667zM5.333 12h6.667c0.736 0 1.333-0.597 1.333-1.333v-6.667h6.667v18.667h-14.667v-10.667zM16.667 16h-8c-0.368 0-0.667 0.298-0.667 0.667v1.333c0 0.368 0.298 0.667 0.667 0.667h8c0.368 0 0.667-0.298 0.667-0.667v-1.333c0-0.368-0.298-0.667-0.667-0.667zM25.333 6.667v18.667c0 1.473-1.194 2.667-2.667 2.667h-14.667c0 1.473 1.194 2.667 2.667 2.667h12c2.946 0 5.333-2.388 5.333-5.333v-16c0-1.473-1.194-2.667-2.667-2.667z"></path>
</svg>