<svg version="1.1" xmlns="http://www.w3.org/2000/svg" width="32" height="32" viewBox="0 0 32 32">
<title>arrow-right</title>
<path fill="currentColor"  d="M2.667 16.667v-1.333c0-0.368 0.298-0.667 0.667-0.667h21.56l-5.933-5.92c-0.126-0.125-0.197-0.296-0.197-0.473s0.071-0.348 0.197-0.473l0.947-0.933c0.125-0.126 0.296-0.197 0.473-0.197s0.348 0.071 0.473 0.197l8.187 8.173c0.188 0.187 0.293 0.442 0.293 0.707v0.507c-0.003 0.265-0.108 0.518-0.293 0.707l-8.187 8.173c-0.125 0.126-0.296 0.197-0.473 0.197s-0.348-0.071-0.473-0.197l-0.947-0.947c-0.125-0.123-0.196-0.291-0.196-0.467s0.071-0.344 0.196-0.467l5.933-5.92h-21.56c-0.368 0-0.667-0.298-0.667-0.667z"></path>
</svg>
