<?xml version="1.0" standalone="no"?><!DOCTYPE svg PUBLIC "-//W3C//DTD SVG 1.1//EN" "http://www.w3.org/Graphics/SVG/1.1/DTD/svg11.dtd"><svg t="1616049019817" class="icon" viewBox="0 0 1078 1024" version="1.1" xmlns="http://www.w3.org/2000/svg" p-id="4031" width="210.546875" height="200" xmlns:xlink="http://www.w3.org/1999/xlink"><defs><style type="text/css"></style></defs><path d="M1078.921 502.827L563.701 9.94h-0.071l-0.918-0.832-0.445-0.502-1.033-0.846-0.373-0.301-1.061-0.79-0.402-0.286-0.975-0.646-0.46-0.3-0.96-0.575-0.574-0.344-0.86-0.459-0.718-0.373-0.731-0.344-0.875-0.402-0.603-0.243-1.032-0.416-0.474-0.172-1.176-0.402-0.401-0.115-1.277-0.373-0.359-0.072-1.348-0.33h-0.33L544.811 0.56h-0.359l-1.348-0.186h-0.43l-1.277-0.115h-5.12l-0.976 0.086h-0.731l-0.99 0.058-0.631 0.086-1.133 0.215-0.56 0.115-1.133 0.272-0.545 0.13-1.09 0.315-0.574 0.172-1.004 0.344-0.645 0.23-0.875 0.358-0.746 0.301-0.746 0.345-0.846 0.401-0.631 0.33-0.947 0.502-0.516 0.301-1.019 0.603-0.43 0.287-1.076 0.717-0.373 0.272-1.076 0.804-0.373 0.3-1.032 0.847-0.445 0.402-0.904 0.817h-0.071L0 501.838l49.586 51.823 39.846-38.111v443.904A64.618 64.618 0 0 0 153.978 1024h768.814a64.618 64.618 0 0 0 64.546-64.546V514.46l11.102 10.628 30.91 29.563z m-454.69 449.455h-171.65V792.165a85.789 85.789 0 0 1 171.593 0z m291.447 0H695.89V792.165c0-86.635-70.656-157.119-157.506-157.119s-157.52 70.484-157.52 157.12v160.116h-219.73V446.931l377.81-361.458 227.56 217.72 149.1 142.647z" p-id="4032" fill="#252C32"></path></svg>