<svg version="1.1" xmlns="http://www.w3.org/2000/svg" width="32" height="32" viewBox="0 0 32 32">
<title>chevron-right</title>
<path fill="currentColor"  d="M21.040 15.040c0.188 0.187 0.293 0.442 0.293 0.707v0.507c-0.003 0.265-0.108 0.518-0.293 0.707l-6.853 6.84c-0.125 0.126-0.296 0.197-0.473 0.197s-0.348-0.071-0.473-0.197l-0.947-0.947c-0.125-0.123-0.196-0.291-0.196-0.467s0.071-0.344 0.196-0.467l5.933-5.92-5.933-5.92c-0.126-0.125-0.197-0.296-0.197-0.473s0.071-0.348 0.197-0.473l0.947-0.933c0.125-0.126 0.296-0.197 0.473-0.197s0.348 0.071 0.473 0.197l6.853 6.84z"></path>
</svg>
