<?xml version="1.0" encoding="UTF-8"?>
<svg width="24px" height="24px" viewBox="0 0 24 24" version="1.1" xmlns="http://www.w3.org/2000/svg" xmlns:xlink="http://www.w3.org/1999/xlink">
    <title>切片</title>
    <g id="页面-1" stroke="none" stroke-width="1" fill="none" fill-rule="evenodd">
        <g id="手机/学习/文档/弹窗2" transform="translate(-190.000000, -16.000000)" fill="#000000" fill-rule="nonzero">
            <g id="icon/24/more" transform="translate(190.000000, 16.000000)">
                <path d="M17.8478992,16.4378992 C17.9425555,16.5317825 17.9957983,16.6595804 17.9957983,16.7928992 C17.9957983,16.9262179 17.9425555,17.0540159 17.8478992,17.1478992 L17.1478992,17.8478992 C17.0540159,17.9425555 16.9262179,17.9957983 16.7928992,17.9957983 C16.6595804,17.9957983 16.5317825,17.9425555 16.4378992,17.8478992 L11.9978992,13.4078992 L7.55789916,17.8478992 C7.46401586,17.9425555 7.33621793,17.9957983 7.20289916,17.9957983 C7.06958039,17.9957983 6.94178246,17.9425555 6.84789916,17.8478992 L6.14789916,17.1478992 C6.05324284,17.0540159 6,16.9262179 6,16.7928992 C6,16.6595804 6.05324284,16.5317825 6.14789916,16.4378992 L10.5878992,11.9978992 L6.14789916,7.55789916 C6.05324284,7.46401586 6,7.33621793 6,7.20289916 C6,7.06958039 6.05324284,6.94178246 6.14789916,6.84789916 L6.84789916,6.14789916 C6.94178246,6.05324284 7.06958039,6 7.20289916,6 C7.33621793,6 7.46401586,6.05324284 7.55789916,6.14789916 L11.9978992,10.5878992 L16.4378992,6.14789916 C16.5317825,6.05324284 16.6595804,6 16.7928992,6 C16.9262179,6 17.0540159,6.05324284 17.1478992,6.14789916 L17.8478992,6.84789916 C17.9425555,6.94178246 17.9957983,7.06958039 17.9957983,7.20289916 C17.9957983,7.33621793 17.9425555,7.46401586 17.8478992,7.55789916 L13.4078992,11.9978992 L17.8478992,16.4378992 Z" id="Icon-color"></path>
            </g>
        </g>
    </g>
</svg>