<svg viewBox="0 0 24 24" xmlns="http://www.w3.org/2000/svg" xmlns:xlink="http://www.w3.org/1999/xlink" width="24" height="24" fill="none" customFrame="#000000">
	<rect id="dark" width="24" height="24" x="0" y="0" />
	<rect id="矩形 13" width="24" height="24" x="0" y="0" fill="rgb(196,196,196)" fill-opacity="0" />
	<path id="Icon color" d="M9.52735 3L9.65333 3C9.77174 3.00269 9.88477 3.05103 9.96827 3.13501L10.0493 3.21631C10.1458 3.31763 10.1948 3.45508 10.1843 3.59448C9.86744 6.20337 10.6831 8.82324 12.4246 10.7903C14.166 12.7573 16.6665 13.8826 19.2925 13.8816C19.6594 13.8799 20.0261 13.856 20.3904 13.8096L20.4443 13.8096C20.5696 13.8 20.6931 13.8423 20.7864 13.9265L20.8674 14.0076C20.9834 14.1301 21.0276 14.304 20.9844 14.467C19.7139 18.668 15.6548 21.385 11.2905 20.9556C6.92628 20.5264 3.4734 17.0703 3.04444 12.7021C2.61549 8.33423 5.33009 4.27148 9.52735 3ZM8.38429 5.49512C8.57447 8.12158 9.70582 10.5911 11.5703 12.4492C13.4226 14.3015 15.8796 15.4241 18.4915 15.6108C16.9231 18.27 13.8677 19.6719 10.8313 19.126C7.79469 18.5798 5.41798 16.2012 4.87257 13.1621C4.32691 10.1228 5.72779 7.06494 8.38429 5.49512Z" fill="rgb(0,0,0)" fill-rule="evenodd" />
	<path id="Icon color" d="M9.52735 3L9.65333 3C9.77174 3.00269 9.88477 3.05103 9.96827 3.13501L10.0493 3.21631C10.1458 3.31763 10.1948 3.45508 10.1843 3.59448C9.86744 6.20337 10.6831 8.82324 12.4246 10.7903C14.166 12.7573 16.6665 13.8826 19.2925 13.8816C19.6594 13.8799 20.0261 13.856 20.3904 13.8096L20.4443 13.8096C20.5696 13.8 20.6931 13.8423 20.7864 13.9265L20.8674 14.0076C20.9834 14.1301 21.0276 14.304 20.9844 14.467C19.7139 18.668 15.6548 21.385 11.2905 20.9556C6.92628 20.5264 3.4734 17.0703 3.04444 12.7021C2.61549 8.33423 5.33009 4.27148 9.52735 3ZM8.38429 5.49512C8.57447 8.12158 9.70582 10.5911 11.5703 12.4492C13.4226 14.3015 15.8796 15.4241 18.4915 15.6108C16.9231 18.27 13.8677 19.6719 10.8313 19.126C7.79469 18.5798 5.41798 16.2012 4.87257 13.1621C4.32691 10.1228 5.72779 7.06494 8.38429 5.49512Z" fill-rule="evenodd" stroke="rgb(151,151,151)" stroke-opacity="0" stroke-width="1" />
</svg>
