<!-- Generated by IcoMoon.io -->
<svg version="1.1" xmlns="http://www.w3.org/2000/svg" width="32" height="32" viewBox="0 0 32 32"> 
<path fill="currentColor" d="M10.643 6.363c0.282 3.891 1.958 7.55 4.72 10.302 2.744 2.744 6.384 4.407 10.253 4.684-2.324 3.939-6.85 6.016-11.348 5.207s-8.019-4.333-8.828-8.835c-0.808-4.502 1.267-9.033 5.203-11.358v0zM12.523 2.667h-0.187c-6.218 1.884-10.24 7.902-9.604 14.374s5.751 11.591 12.216 12.227c6.466 0.636 12.479-3.389 14.361-9.613v0c0.064-0.242-0.002-0.499-0.173-0.681l-0.12-0.12c-0.138-0.125-0.321-0.187-0.507-0.173h-0.080c-0.54 0.069-1.083 0.104-1.627 0.107-3.89 0.002-7.595-1.666-10.175-4.58s-3.788-6.795-3.319-10.66c0.015-0.207-0.057-0.41-0.2-0.561l-0.12-0.12c-0.124-0.125-0.291-0.196-0.467-0.2z"></path>
</svg>
