<?xml version="1.0" encoding="UTF-8"?>
<svg width="24px" height="24px" viewBox="0 0 24 24" version="1.1" xmlns="http://www.w3.org/2000/svg" xmlns:xlink="http://www.w3.org/1999/xlink">
    <title>切片</title>
    <g id="页面-1" stroke="none" stroke-width="1" fill="none" fill-rule="evenodd">
        <g id="手机/学习/文档/内容" transform="translate(-16.000000, -32.000000)" fill="#000000" fill-rule="nonzero">
            <g id="icon/24/more" transform="translate(16.000000, 32.000000)">
                <path d="M20.5,7 L3.5,7 C3.22385763,7 3,6.77614237 3,6.5 L3,5.5 C3,5.22385763 3.22385763,5 3.5,5 L20.5,5 C20.7761424,5 21,5.22385763 21,5.5 L21,6.5 C21,6.77614237 20.7761424,7 20.5,7 Z M21,12.5 L21,11.5 C21,11.2238576 20.7761424,11 20.5,11 L3.5,11 C3.22385763,11 3,11.2238576 3,11.5 L3,12.5 C3,12.7761424 3.22385763,13 3.5,13 L20.5,13 C20.7761424,13 21,12.7761424 21,12.5 Z M21,18.5 L21,17.5 C21,17.2238576 20.7761424,17 20.5,17 L3.5,17 C3.22385763,17 3,17.2238576 3,17.5 L3,18.5 C3,18.7761424 3.22385763,19 3.5,19 L20.5,19 C20.7761424,19 21,18.7761424 21,18.5 Z" id="Icon-color"></path>
            </g>
        </g>
    </g>
</svg>