<svg viewBox="0 0 24 24" xmlns="http://www.w3.org/2000/svg" xmlns:xlink="http://www.w3.org/1999/xlink" width="24" height="24" fill="none">
	<rect id="light" width="24" height="24" x="0" y="0" />
	<path id="矢量 16" d="M12 9.30013C13.491 9.30013 14.6999 10.509 14.6999 12C14.6999 13.491 13.491 14.6999 12 14.6999C10.509 14.6999 9.30013 13.491 9.30013 12C9.30013 10.509 10.509 9.30013 12 9.30013ZM12 7.5C9.51477 7.5 7.5 9.51477 7.5 12C7.5 14.4852 9.51477 16.5 12 16.5C14.4852 16.5 16.5 14.4852 16.5 12C16.5 9.51477 14.4852 7.5 12 7.5ZM11.5498 5.70054L12.4495 5.70054C12.6979 5.70054 12.8997 5.4994 12.8997 5.25034L12.8997 3.4502C12.8997 3.20181 12.6986 3 12.4495 3L11.5498 3C11.3014 3 11.0996 3.20114 11.0996 3.4502L11.0996 5.25034C11.0996 5.49872 11.3007 5.70054 11.5498 5.70054ZM12.4502 18.2995L11.5505 18.2995C11.3021 18.2995 11.1003 18.5006 11.1003 18.7497L11.1003 20.5498C11.1003 20.7982 11.3014 21 11.5505 21L12.4502 21C12.6986 21 12.9004 20.7989 12.9004 20.5498L12.9004 18.7497C12.9004 18.5013 12.6993 18.2995 12.4502 18.2995ZM20.5498 11.1003L18.7497 11.1003C18.5013 11.1003 18.2995 11.3014 18.2995 11.5505L18.2995 12.4502C18.2995 12.6986 18.5006 12.9004 18.7497 12.9004L20.5498 12.9004C20.7982 12.9004 21 12.6993 21 12.4502L21 11.5505C21 11.3021 20.7989 11.1003 20.5498 11.1003ZM5.70054 12.4502L5.70054 11.5505C5.70054 11.3021 5.4994 11.1003 5.25034 11.1003L3.4502 11.1003C3.20181 11.1003 3 11.3014 3 11.5505L3 12.4502C3 12.6986 3.20114 12.9004 3.4502 12.9004L5.25034 12.9004C5.49872 12.9004 5.70054 12.6993 5.70054 12.4502ZM16.77 7.86043C16.8544 7.94548 16.9698 7.9934 17.0892 7.9934C17.2087 7.9934 17.3241 7.94548 17.4085 7.86043L18.6774 6.60027C18.7625 6.5159 18.8104 6.40048 18.8104 6.28101C18.8104 6.16154 18.7625 6.04612 18.6774 5.96175L18.0477 5.33201C17.9633 5.24696 17.8479 5.19904 17.7284 5.19904C17.609 5.19904 17.4935 5.24696 17.4092 5.33201L16.1402 6.60094C16.0552 6.68532 16.0073 6.80073 16.0073 6.9202C16.0073 7.03967 16.0552 7.15509 16.1402 7.23946L16.77 7.86043L16.77 7.86043ZM7.23001 16.1396C7.14564 16.0545 7.03022 16.0066 6.91075 16.0066C6.79129 16.0066 6.67587 16.0545 6.5915 16.1396L5.32256 17.3997C5.23751 17.4841 5.18959 17.5995 5.18959 17.719C5.18959 17.8385 5.23751 17.9539 5.32256 18.0382L5.9523 18.668C6.03667 18.753 6.15209 18.801 6.27156 18.801C6.39103 18.801 6.50645 18.753 6.59082 18.668L7.85976 17.3991C7.9448 17.3147 7.99273 17.1993 7.99273 17.0798C7.99273 16.9603 7.9448 16.8449 7.85976 16.7605L7.23001 16.1396L7.23001 16.1396ZM17.3997 16.1396C17.3154 16.0545 17.1999 16.0066 17.0805 16.0066C16.961 16.0066 16.8456 16.0545 16.7612 16.1396L16.1315 16.7693C16.0464 16.8537 15.9985 16.9691 15.9985 17.0886C15.9985 17.208 16.0464 17.3235 16.1315 17.4078L17.4004 18.6768C17.4848 18.7618 17.6002 18.8097 17.7197 18.8097C17.8391 18.8097 17.9546 18.7618 18.0389 18.6768L18.6687 18.047C18.7537 17.9627 18.8016 17.8472 18.8016 17.7278C18.8016 17.6083 18.7537 17.4929 18.6687 17.4085L17.3997 16.1396ZM6.60027 7.86043C6.68464 7.94548 6.80006 7.9934 6.91953 7.9934C7.039 7.9934 7.15442 7.94548 7.23879 7.86043L7.86853 7.23069C8.03727 7.05317 8.0339 6.77306 7.85976 6.60095L6.59959 5.32323C6.51522 5.23819 6.39981 5.19027 6.28034 5.19027C6.16087 5.19027 6.04545 5.23819 5.96108 5.32323L5.33133 5.95298C5.24629 6.03735 5.19836 6.15277 5.19836 6.27224C5.19836 6.39171 5.24629 6.50712 5.33133 6.5915L6.60027 7.86043L6.60027 7.86043Z" fill="rgb(0,0,0)" fill-rule="nonzero" />
</svg>
