<!-- Generated by IcoMoon.io -->
<svg version="1.1" xmlns="http://www.w3.org/2000/svg" width="32" height="32" viewBox="0 0 32 32">
<title>sun</title>
<path fill="currentColor" d="M16 12c2.209 0 4 1.791 4 4s-1.791 4-4 4c-2.209 0-4-1.791-4-4s1.791-4 4-4v0zM16 9.333c-3.682 0-6.667 2.985-6.667 6.667s2.985 6.667 6.667 6.667c3.682 0 6.667-2.985 6.667-6.667s-2.985-6.667-6.667-6.667v0zM15.333 6.667h1.333c0.368 0 0.667-0.298 0.667-0.667v-2.667c0-0.368-0.298-0.667-0.667-0.667h-1.333c-0.368 0-0.667 0.298-0.667 0.667v2.667c0 0.368 0.298 0.667 0.667 0.667zM16.667 25.333h-1.333c-0.368 0-0.667 0.298-0.667 0.667v2.667c0 0.368 0.298 0.667 0.667 0.667h1.333c0.368 0 0.667-0.298 0.667-0.667v-2.667c0-0.368-0.298-0.667-0.667-0.667zM28.667 14.667h-2.667c-0.368 0-0.667 0.298-0.667 0.667v1.333c0 0.368 0.298 0.667 0.667 0.667h2.667c0.368 0 0.667-0.298 0.667-0.667v-1.333c0-0.368-0.298-0.667-0.667-0.667zM6.667 16.667v-1.333c0-0.368-0.298-0.667-0.667-0.667h-2.667c-0.368 0-0.667 0.298-0.667 0.667v1.333c0 0.368 0.298 0.667 0.667 0.667h2.667c0.368 0 0.667-0.298 0.667-0.667zM23.067 9.867c0.125 0.126 0.296 0.197 0.473 0.197s0.348-0.071 0.473-0.197l1.88-1.867c0.126-0.125 0.197-0.296 0.197-0.473s-0.071-0.348-0.197-0.473l-0.933-0.933c-0.125-0.126-0.296-0.197-0.473-0.197s-0.348 0.071-0.473 0.197l-1.88 1.88c-0.126 0.125-0.197 0.296-0.197 0.473s0.071 0.348 0.197 0.473l0.933 0.92zM8.933 22.133c-0.125-0.126-0.296-0.197-0.473-0.197s-0.348 0.071-0.473 0.197l-1.88 1.867c-0.126 0.125-0.197 0.296-0.197 0.473s0.071 0.348 0.197 0.473l0.933 0.933c0.125 0.126 0.296 0.197 0.473 0.197s0.348-0.071 0.473-0.197l1.88-1.88c0.126-0.125 0.197-0.296 0.197-0.473s-0.071-0.348-0.197-0.473l-0.933-0.92zM24 22.133c-0.125-0.126-0.296-0.197-0.473-0.197s-0.348 0.071-0.473 0.197l-0.933 0.933c-0.126 0.125-0.197 0.296-0.197 0.473s0.071 0.348 0.197 0.473l1.88 1.88c0.125 0.126 0.296 0.197 0.473 0.197s0.348-0.071 0.473-0.197l0.933-0.933c0.126-0.125 0.197-0.296 0.197-0.473s-0.071-0.348-0.197-0.473l-1.88-1.88zM8 9.867c0.125 0.126 0.296 0.197 0.473 0.197s0.348-0.071 0.473-0.197l0.933-0.933c0.25-0.263 0.245-0.678-0.013-0.933l-1.867-1.893c-0.125-0.126-0.296-0.197-0.473-0.197s-0.348 0.071-0.473 0.197l-0.933 0.933c-0.126 0.125-0.197 0.296-0.197 0.473s0.071 0.348 0.197 0.473l1.88 1.88z"></path>
</svg>
