<svg t="1623924397054" class="icon" viewBox="0 0 1024 1024" version="1.1" xmlns="http://www.w3.org/2000/svg" p-id="1588" width="200" height="200"><path d="M1005.26751 914.388545 696.84534 605.966377C741.636939 543.258136 767.872023 467.112414 767.872023 383.928011 767.872023 172.127725 595.744297 0 383.944011 0 172.143725 0 0.016 172.127725 0.016 383.928011 0.016 595.728297 172.143725 767.856024 383.944011 767.856024 467.128413 767.856024 543.274136 741.62094 606.622257 696.829341L915.044429 1005.251511C939.999745 1030.206833 980.952072 1030.206833 1005.26751 1005.251511 1029.582949 980.296188 1030.222833 939.343868 1005.26751 914.388545L1005.26751 914.388545ZM95.998002 383.928011C95.998002 224.597886 224.613886 95.982003 383.944011 95.982003 543.274136 95.982003 671.890018 224.597886 671.890018 383.928011 671.890018 543.258136 543.274136 671.874018 383.944011 671.874018 224.613886 671.874018 95.998002 543.258136 95.998002 383.928011L95.998002 383.928011Z" p-id="1589"></path></svg>